<mxfile host="app.diagrams.net" modified="2024-04-12T20:37:43.247Z" agent="Mozilla/5.0 (Windows NT 10.0; Win64; x64) AppleWebKit/537.36 (KHTML, like Gecko) Chrome/123.0.0.0 Safari/537.36" etag="BjiJ01bnASIkm66tQDM9" version="24.2.2" type="device">
  <diagram id="C5RBs43oDa-KdzZeNtuy" name="Page-1">
    <mxGraphModel dx="3720" dy="1613" grid="1" gridSize="10" guides="1" tooltips="1" connect="1" arrows="1" fold="1" page="1" pageScale="1" pageWidth="827" pageHeight="1169" math="0" shadow="0">
      <root>
        <mxCell id="WIyWlLk6GJQsqaUBKTNV-0" />
        <mxCell id="WIyWlLk6GJQsqaUBKTNV-1" parent="WIyWlLk6GJQsqaUBKTNV-0" />
        <mxCell id="ZTby4JIDLadT5wWPWZZM-5" value="&lt;span style=&quot;font-weight: normal;&quot;&gt;«abstract»&lt;br&gt;&lt;/span&gt;Item" style="swimlane;fontStyle=1;align=center;verticalAlign=top;childLayout=stackLayout;horizontal=1;startSize=40;horizontalStack=0;resizeParent=1;resizeParentMax=0;resizeLast=0;collapsible=1;marginBottom=0;whiteSpace=wrap;html=1;" parent="WIyWlLk6GJQsqaUBKTNV-1" vertex="1">
          <mxGeometry x="-980" y="10" width="260" height="170" as="geometry" />
        </mxCell>
        <mxCell id="ZTby4JIDLadT5wWPWZZM-6" value="- desc: string" style="text;strokeColor=none;fillColor=none;align=left;verticalAlign=top;spacingLeft=4;spacingRight=4;overflow=hidden;rotatable=0;points=[[0,0.5],[1,0.5]];portConstraint=eastwest;whiteSpace=wrap;html=1;" parent="ZTby4JIDLadT5wWPWZZM-5" vertex="1">
          <mxGeometry y="40" width="260" height="30" as="geometry" />
        </mxCell>
        <mxCell id="ZTby4JIDLadT5wWPWZZM-7" value="" style="line;strokeWidth=1;fillColor=none;align=left;verticalAlign=middle;spacingTop=-1;spacingLeft=3;spacingRight=3;rotatable=0;labelPosition=right;points=[];portConstraint=eastwest;strokeColor=inherit;" parent="ZTby4JIDLadT5wWPWZZM-5" vertex="1">
          <mxGeometry y="70" width="260" height="8" as="geometry" />
        </mxCell>
        <mxCell id="ZTby4JIDLadT5wWPWZZM-8" value="&lt;i&gt;+ use(Student): void&lt;br&gt;&lt;/i&gt;&lt;div&gt;&lt;i&gt;+ canInstructorPickUp(): boolean&lt;/i&gt;&lt;/div&gt;&lt;div&gt;&lt;i&gt;+ onPickedUp(Student): void&lt;br style=&quot;border-color: var(--border-color);&quot;&gt;+ onRoundStart(Student): void&lt;br style=&quot;border-color: var(--border-color);&quot;&gt;+ onAttacked(Student, Instructor): bool&lt;br&gt;&lt;/i&gt;&lt;/div&gt;" style="text;strokeColor=none;fillColor=none;align=left;verticalAlign=top;spacingLeft=4;spacingRight=4;overflow=hidden;rotatable=0;points=[[0,0.5],[1,0.5]];portConstraint=eastwest;whiteSpace=wrap;html=1;" parent="ZTby4JIDLadT5wWPWZZM-5" vertex="1">
          <mxGeometry y="78" width="260" height="92" as="geometry" />
        </mxCell>
        <mxCell id="ZTby4JIDLadT5wWPWZZM-237" value="Dice" style="swimlane;fontStyle=1;align=center;verticalAlign=top;childLayout=stackLayout;horizontal=1;startSize=26;horizontalStack=0;resizeParent=1;resizeParentMax=0;resizeLast=0;collapsible=1;marginBottom=0;whiteSpace=wrap;html=1;" parent="WIyWlLk6GJQsqaUBKTNV-1" vertex="1">
          <mxGeometry x="-1390" y="180" width="220" height="160" as="geometry" />
        </mxCell>
        <mxCell id="ZTby4JIDLadT5wWPWZZM-238" value="- currentValue: int" style="text;strokeColor=none;fillColor=none;align=left;verticalAlign=top;spacingLeft=4;spacingRight=4;overflow=hidden;rotatable=0;points=[[0,0.5],[1,0.5]];portConstraint=eastwest;whiteSpace=wrap;html=1;" parent="ZTby4JIDLadT5wWPWZZM-237" vertex="1">
          <mxGeometry y="26" width="220" height="26" as="geometry" />
        </mxCell>
        <mxCell id="ZTby4JIDLadT5wWPWZZM-239" value="" style="line;strokeWidth=1;fillColor=none;align=left;verticalAlign=middle;spacingTop=-1;spacingLeft=3;spacingRight=3;rotatable=0;labelPosition=right;points=[];portConstraint=eastwest;strokeColor=inherit;" parent="ZTby4JIDLadT5wWPWZZM-237" vertex="1">
          <mxGeometry y="52" width="220" height="8" as="geometry" />
        </mxCell>
        <mxCell id="ZTby4JIDLadT5wWPWZZM-240" value="+ throw(): void&lt;div&gt;+ use(Student): void&lt;br&gt;&lt;/div&gt;&lt;div&gt;+&amp;nbsp;&lt;span style=&quot;background-color: initial;&quot;&gt;canInstructorPickUp(): boolean&lt;/span&gt;&lt;/div&gt;&lt;div&gt;+ onPickedUp(Student): void&lt;br style=&quot;border-color: var(--border-color);&quot;&gt;+ onRoundStart(Student): void&lt;br style=&quot;border-color: var(--border-color);&quot;&gt;+ onAttacked(Student, Instructor): bool&lt;span style=&quot;background-color: initial;&quot;&gt;&lt;br&gt;&lt;/span&gt;&lt;/div&gt;" style="text;strokeColor=none;fillColor=none;align=left;verticalAlign=top;spacingLeft=4;spacingRight=4;overflow=hidden;rotatable=0;points=[[0,0.5],[1,0.5]];portConstraint=eastwest;whiteSpace=wrap;html=1;" parent="ZTby4JIDLadT5wWPWZZM-237" vertex="1">
          <mxGeometry y="60" width="220" height="100" as="geometry" />
        </mxCell>
        <mxCell id="ZTby4JIDLadT5wWPWZZM-249" value="TVSZ" style="swimlane;fontStyle=1;align=center;verticalAlign=top;childLayout=stackLayout;horizontal=1;startSize=26;horizontalStack=0;resizeParent=1;resizeParentMax=0;resizeLast=0;collapsible=1;marginBottom=0;whiteSpace=wrap;html=1;" parent="WIyWlLk6GJQsqaUBKTNV-1" vertex="1">
          <mxGeometry x="-1150" y="200" width="220" height="170" as="geometry" />
        </mxCell>
        <mxCell id="ZTby4JIDLadT5wWPWZZM-250" value="- remainingProtection: int" style="text;strokeColor=none;fillColor=none;align=left;verticalAlign=top;spacingLeft=4;spacingRight=4;overflow=hidden;rotatable=0;points=[[0,0.5],[1,0.5]];portConstraint=eastwest;whiteSpace=wrap;html=1;" parent="ZTby4JIDLadT5wWPWZZM-249" vertex="1">
          <mxGeometry y="26" width="220" height="26" as="geometry" />
        </mxCell>
        <mxCell id="ZTby4JIDLadT5wWPWZZM-251" value="" style="line;strokeWidth=1;fillColor=none;align=left;verticalAlign=middle;spacingTop=-1;spacingLeft=3;spacingRight=3;rotatable=0;labelPosition=right;points=[];portConstraint=eastwest;strokeColor=inherit;" parent="ZTby4JIDLadT5wWPWZZM-249" vertex="1">
          <mxGeometry y="52" width="220" height="8" as="geometry" />
        </mxCell>
        <mxCell id="akZmPor6qZCUniB-4no1-6" value="+ use(Student): void&lt;div&gt;&lt;span style=&quot;background-color: initial;&quot;&gt;+ canInstructorPickUp(): boolean&lt;/span&gt;&lt;/div&gt;&lt;div&gt;+ onPickedUp(Student): void&lt;br style=&quot;border-color: var(--border-color);&quot;&gt;+ onRoundStart(Student): void&lt;br style=&quot;border-color: var(--border-color);&quot;&gt;+ onAttacked(Student, Instructor): bool&lt;span style=&quot;background-color: initial;&quot;&gt;&lt;br&gt;&lt;/span&gt;&lt;/div&gt;&lt;div&gt;+ addProtection(int): void&lt;/div&gt;&lt;div&gt;+ getRemainingProtection: int&lt;/div&gt;" style="text;strokeColor=none;fillColor=none;align=left;verticalAlign=top;spacingLeft=4;spacingRight=4;overflow=hidden;rotatable=0;points=[[0,0.5],[1,0.5]];portConstraint=eastwest;whiteSpace=wrap;html=1;" parent="ZTby4JIDLadT5wWPWZZM-249" vertex="1">
          <mxGeometry y="60" width="220" height="110" as="geometry" />
        </mxCell>
        <mxCell id="ZTby4JIDLadT5wWPWZZM-253" value="Camambert" style="swimlane;fontStyle=1;align=center;verticalAlign=top;childLayout=stackLayout;horizontal=1;startSize=26;horizontalStack=0;resizeParent=1;resizeParentMax=0;resizeLast=0;collapsible=1;marginBottom=0;whiteSpace=wrap;html=1;" parent="WIyWlLk6GJQsqaUBKTNV-1" vertex="1">
          <mxGeometry x="-508" y="350" width="230" height="120" as="geometry" />
        </mxCell>
        <mxCell id="ZTby4JIDLadT5wWPWZZM-255" value="" style="line;strokeWidth=1;fillColor=none;align=left;verticalAlign=middle;spacingTop=-1;spacingLeft=3;spacingRight=3;rotatable=0;labelPosition=right;points=[];portConstraint=eastwest;strokeColor=inherit;" parent="ZTby4JIDLadT5wWPWZZM-253" vertex="1">
          <mxGeometry y="26" width="230" height="8" as="geometry" />
        </mxCell>
        <mxCell id="akZmPor6qZCUniB-4no1-8" value="+ use(Student): void&lt;br&gt;&lt;div&gt;+&amp;nbsp;&lt;span style=&quot;background-color: initial;&quot;&gt;canInstructorPickUp(): boolean&lt;/span&gt;&lt;/div&gt;&lt;div&gt;+ onPickedUp(Student): void&lt;br style=&quot;border-color: var(--border-color);&quot;&gt;+ onRoundStart(Student): void&lt;br style=&quot;border-color: var(--border-color);&quot;&gt;+ onAttacked(Student, Instructor): bool&lt;span style=&quot;background-color: initial;&quot;&gt;&lt;br&gt;&lt;/span&gt;&lt;/div&gt;" style="text;strokeColor=none;fillColor=none;align=left;verticalAlign=top;spacingLeft=4;spacingRight=4;overflow=hidden;rotatable=0;points=[[0,0.5],[1,0.5]];portConstraint=eastwest;whiteSpace=wrap;html=1;" parent="ZTby4JIDLadT5wWPWZZM-253" vertex="1">
          <mxGeometry y="34" width="230" height="86" as="geometry" />
        </mxCell>
        <mxCell id="ZTby4JIDLadT5wWPWZZM-257" value="WetRag" style="swimlane;fontStyle=1;align=center;verticalAlign=top;childLayout=stackLayout;horizontal=1;startSize=26;horizontalStack=0;resizeParent=1;resizeParentMax=0;resizeLast=0;collapsible=1;marginBottom=0;whiteSpace=wrap;html=1;" parent="WIyWlLk6GJQsqaUBKTNV-1" vertex="1">
          <mxGeometry x="-520" width="230" height="160" as="geometry" />
        </mxCell>
        <mxCell id="ZTby4JIDLadT5wWPWZZM-258" value="- wetness: int" style="text;strokeColor=none;fillColor=none;align=left;verticalAlign=top;spacingLeft=4;spacingRight=4;overflow=hidden;rotatable=0;points=[[0,0.5],[1,0.5]];portConstraint=eastwest;whiteSpace=wrap;html=1;" parent="ZTby4JIDLadT5wWPWZZM-257" vertex="1">
          <mxGeometry y="26" width="230" height="26" as="geometry" />
        </mxCell>
        <mxCell id="ZTby4JIDLadT5wWPWZZM-259" value="" style="line;strokeWidth=1;fillColor=none;align=left;verticalAlign=middle;spacingTop=-1;spacingLeft=3;spacingRight=3;rotatable=0;labelPosition=right;points=[];portConstraint=eastwest;strokeColor=inherit;" parent="ZTby4JIDLadT5wWPWZZM-257" vertex="1">
          <mxGeometry y="52" width="230" height="8" as="geometry" />
        </mxCell>
        <mxCell id="ZTby4JIDLadT5wWPWZZM-260" value="&lt;div&gt;+ use(Student): void&lt;/div&gt;&lt;div&gt;&lt;span style=&quot;background-color: initial;&quot;&gt;+&amp;nbsp;&lt;/span&gt;&lt;span style=&quot;background-color: initial;&quot;&gt;canInstructorPickUp(): boolean&lt;/span&gt;&lt;br&gt;&lt;/div&gt;&lt;div&gt;+ onPickedUp(Student): void&lt;br style=&quot;border-color: var(--border-color);&quot;&gt;+ onRoundStart(Student): void&lt;br style=&quot;border-color: var(--border-color);&quot;&gt;+ onAttacked(Student, Instructor): bool&lt;span style=&quot;background-color: initial;&quot;&gt;&lt;br&gt;&lt;/span&gt;&lt;/div&gt;&lt;div&gt;+ GetWetness(): int&lt;/div&gt;" style="text;strokeColor=none;fillColor=none;align=left;verticalAlign=top;spacingLeft=4;spacingRight=4;overflow=hidden;rotatable=0;points=[[0,0.5],[1,0.5]];portConstraint=eastwest;whiteSpace=wrap;html=1;" parent="ZTby4JIDLadT5wWPWZZM-257" vertex="1">
          <mxGeometry y="60" width="230" height="100" as="geometry" />
        </mxCell>
        <mxCell id="ZTby4JIDLadT5wWPWZZM-261" value="FFP2" style="swimlane;fontStyle=1;align=center;verticalAlign=top;childLayout=stackLayout;horizontal=1;startSize=26;horizontalStack=0;resizeParent=1;resizeParentMax=0;resizeLast=0;collapsible=1;marginBottom=0;whiteSpace=wrap;html=1;" parent="WIyWlLk6GJQsqaUBKTNV-1" vertex="1">
          <mxGeometry x="-1260" y="400" width="190" height="140" as="geometry" />
        </mxCell>
        <mxCell id="ZTby4JIDLadT5wWPWZZM-262" value="- durability: int" style="text;strokeColor=none;fillColor=none;align=left;verticalAlign=top;spacingLeft=4;spacingRight=4;overflow=hidden;rotatable=0;points=[[0,0.5],[1,0.5]];portConstraint=eastwest;whiteSpace=wrap;html=1;" parent="ZTby4JIDLadT5wWPWZZM-261" vertex="1">
          <mxGeometry y="26" width="190" height="26" as="geometry" />
        </mxCell>
        <mxCell id="ZTby4JIDLadT5wWPWZZM-263" value="" style="line;strokeWidth=1;fillColor=none;align=left;verticalAlign=middle;spacingTop=-1;spacingLeft=3;spacingRight=3;rotatable=0;labelPosition=right;points=[];portConstraint=eastwest;strokeColor=inherit;" parent="ZTby4JIDLadT5wWPWZZM-261" vertex="1">
          <mxGeometry y="52" width="190" height="8" as="geometry" />
        </mxCell>
        <mxCell id="akZmPor6qZCUniB-4no1-3" value="+ use(Student): void&lt;br&gt;&lt;div&gt;+ canInstructorPickUp(): boolean&lt;br&gt;&lt;/div&gt;&lt;div&gt;+ onPickedUp(Student): void&lt;br style=&quot;border-color: var(--border-color);&quot;&gt;+ onRoundStart(Student): void&lt;br style=&quot;border-color: var(--border-color);&quot;&gt;+ onAttacked(Student): void&lt;br&gt;&lt;/div&gt;" style="text;strokeColor=none;fillColor=none;align=left;verticalAlign=top;spacingLeft=4;spacingRight=4;overflow=hidden;rotatable=0;points=[[0,0.5],[1,0.5]];portConstraint=eastwest;whiteSpace=wrap;html=1;" parent="ZTby4JIDLadT5wWPWZZM-261" vertex="1">
          <mxGeometry y="60" width="190" height="80" as="geometry" />
        </mxCell>
        <mxCell id="ZTby4JIDLadT5wWPWZZM-269" value="SlideRule" style="swimlane;fontStyle=1;align=center;verticalAlign=top;childLayout=stackLayout;horizontal=1;startSize=26;horizontalStack=0;resizeParent=1;resizeParentMax=0;resizeLast=0;collapsible=1;marginBottom=0;whiteSpace=wrap;html=1;" parent="WIyWlLk6GJQsqaUBKTNV-1" vertex="1">
          <mxGeometry x="-1390" y="28" width="220" height="120" as="geometry" />
        </mxCell>
        <mxCell id="ZTby4JIDLadT5wWPWZZM-271" value="" style="line;strokeWidth=1;fillColor=none;align=left;verticalAlign=middle;spacingTop=-1;spacingLeft=3;spacingRight=3;rotatable=0;labelPosition=right;points=[];portConstraint=eastwest;strokeColor=inherit;" parent="ZTby4JIDLadT5wWPWZZM-269" vertex="1">
          <mxGeometry y="26" width="220" height="8" as="geometry" />
        </mxCell>
        <mxCell id="akZmPor6qZCUniB-4no1-2" value="+ use(Student): void&lt;br&gt;&lt;div&gt;+&amp;nbsp;&lt;span style=&quot;background-color: initial;&quot;&gt;canInstructorPickUp(): boolean&lt;/span&gt;&lt;/div&gt;&lt;div&gt;+ onPickedUp(Student): void&lt;br style=&quot;border-color: var(--border-color);&quot;&gt;+ onRoundStart(Student): void&lt;br style=&quot;border-color: var(--border-color);&quot;&gt;+ onAttacked(Student, Instructor): bool&lt;span style=&quot;background-color: initial;&quot;&gt;&lt;br&gt;&lt;/span&gt;&lt;/div&gt;" style="text;strokeColor=none;fillColor=none;align=left;verticalAlign=top;spacingLeft=4;spacingRight=4;overflow=hidden;rotatable=0;points=[[0,0.5],[1,0.5]];portConstraint=eastwest;whiteSpace=wrap;html=1;" parent="ZTby4JIDLadT5wWPWZZM-269" vertex="1">
          <mxGeometry y="34" width="220" height="86" as="geometry" />
        </mxCell>
        <mxCell id="ZTby4JIDLadT5wWPWZZM-273" value="GlassOfBeer" style="swimlane;fontStyle=1;align=center;verticalAlign=top;childLayout=stackLayout;horizontal=1;startSize=26;horizontalStack=0;resizeParent=1;resizeParentMax=0;resizeLast=0;collapsible=1;marginBottom=0;whiteSpace=wrap;html=1;" parent="WIyWlLk6GJQsqaUBKTNV-1" vertex="1">
          <mxGeometry x="-508" y="170" width="230" height="170" as="geometry" />
        </mxCell>
        <mxCell id="ZTby4JIDLadT5wWPWZZM-274" value="- activated: boolean" style="text;strokeColor=none;fillColor=none;align=left;verticalAlign=top;spacingLeft=4;spacingRight=4;overflow=hidden;rotatable=0;points=[[0,0.5],[1,0.5]];portConstraint=eastwest;whiteSpace=wrap;html=1;" parent="ZTby4JIDLadT5wWPWZZM-273" vertex="1">
          <mxGeometry y="26" width="230" height="26" as="geometry" />
        </mxCell>
        <mxCell id="ZTby4JIDLadT5wWPWZZM-275" value="" style="line;strokeWidth=1;fillColor=none;align=left;verticalAlign=middle;spacingTop=-1;spacingLeft=3;spacingRight=3;rotatable=0;labelPosition=right;points=[];portConstraint=eastwest;strokeColor=inherit;" parent="ZTby4JIDLadT5wWPWZZM-273" vertex="1">
          <mxGeometry y="52" width="230" height="8" as="geometry" />
        </mxCell>
        <mxCell id="akZmPor6qZCUniB-4no1-9" value="+ use(Student): void&lt;br&gt;&lt;div&gt;+ canInstructorPickUp(): boolean&lt;br&gt;&lt;/div&gt;&lt;div&gt;+ onPickedUp(Student): void&lt;br style=&quot;border-color: var(--border-color);&quot;&gt;+ onRoundStart(Student): void&lt;br style=&quot;border-color: var(--border-color);&quot;&gt;+ onAttacked(Student, Instructor): bool&lt;br&gt;&lt;/div&gt;&lt;div&gt;+ activate(): bool&lt;/div&gt;&lt;div&gt;+ getActivated(): bool&lt;/div&gt;" style="text;strokeColor=none;fillColor=none;align=left;verticalAlign=top;spacingLeft=4;spacingRight=4;overflow=hidden;rotatable=0;points=[[0,0.5],[1,0.5]];portConstraint=eastwest;whiteSpace=wrap;html=1;" parent="ZTby4JIDLadT5wWPWZZM-273" vertex="1">
          <mxGeometry y="60" width="230" height="110" as="geometry" />
        </mxCell>
        <mxCell id="ZTby4JIDLadT5wWPWZZM-698" value="" style="endArrow=block;endSize=16;endFill=0;html=1;rounded=0;exitX=0.5;exitY=0;exitDx=0;exitDy=0;entryX=0.005;entryY=0.202;entryDx=0;entryDy=0;entryPerimeter=0;" parent="WIyWlLk6GJQsqaUBKTNV-1" source="ZTby4JIDLadT5wWPWZZM-249" target="ZTby4JIDLadT5wWPWZZM-8" edge="1">
          <mxGeometry x="0.0526" width="160" relative="1" as="geometry">
            <mxPoint x="-1045" y="256" as="sourcePoint" />
            <mxPoint x="-980" y="80" as="targetPoint" />
            <Array as="points">
              <mxPoint x="-1040" y="96" />
            </Array>
            <mxPoint as="offset" />
          </mxGeometry>
        </mxCell>
        <mxCell id="ZTby4JIDLadT5wWPWZZM-700" value="" style="endArrow=block;endSize=16;endFill=0;html=1;rounded=0;entryX=0.938;entryY=0.995;entryDx=0;entryDy=0;entryPerimeter=0;exitX=0.394;exitY=-0.004;exitDx=0;exitDy=0;exitPerimeter=0;" parent="WIyWlLk6GJQsqaUBKTNV-1" source="ZTby4JIDLadT5wWPWZZM-241" target="ZTby4JIDLadT5wWPWZZM-8" edge="1">
          <mxGeometry x="0.0526" width="160" relative="1" as="geometry">
            <mxPoint x="-714.9958100558658" y="174" as="sourcePoint" />
            <mxPoint x="-730.75" y="80" as="targetPoint" />
            <Array as="points" />
            <mxPoint as="offset" />
          </mxGeometry>
        </mxCell>
        <mxCell id="ZTby4JIDLadT5wWPWZZM-702" value="" style="endArrow=block;endSize=16;endFill=0;html=1;rounded=0;entryX=-0.003;entryY=0.632;entryDx=0;entryDy=0;exitX=0.527;exitY=-0.013;exitDx=0;exitDy=0;exitPerimeter=0;entryPerimeter=0;" parent="WIyWlLk6GJQsqaUBKTNV-1" source="ZTby4JIDLadT5wWPWZZM-261" target="ZTby4JIDLadT5wWPWZZM-6" edge="1">
          <mxGeometry x="0.0526" width="160" relative="1" as="geometry">
            <mxPoint x="-1250" y="221" as="sourcePoint" />
            <mxPoint x="-1490" y="50" as="targetPoint" />
            <Array as="points">
              <mxPoint x="-1160" y="320" />
              <mxPoint x="-1160" y="260" />
              <mxPoint x="-1160" y="190" />
              <mxPoint x="-1060" y="190" />
              <mxPoint x="-1060" y="60" />
            </Array>
            <mxPoint as="offset" />
          </mxGeometry>
        </mxCell>
        <mxCell id="ZTby4JIDLadT5wWPWZZM-703" value="" style="endArrow=block;endSize=16;endFill=0;html=1;rounded=0;entryX=1;entryY=0.25;entryDx=0;entryDy=0;exitX=0;exitY=0;exitDx=0;exitDy=0;" parent="WIyWlLk6GJQsqaUBKTNV-1" source="ZTby4JIDLadT5wWPWZZM-273" target="ZTby4JIDLadT5wWPWZZM-5" edge="1">
          <mxGeometry x="0.0526" width="160" relative="1" as="geometry">
            <mxPoint x="-400" y="241" as="sourcePoint" />
            <mxPoint x="-640" y="70" as="targetPoint" />
            <Array as="points" />
            <mxPoint as="offset" />
          </mxGeometry>
        </mxCell>
        <mxCell id="ZTby4JIDLadT5wWPWZZM-704" value="" style="endArrow=block;endSize=16;endFill=0;html=1;rounded=0;entryX=0;entryY=0.25;entryDx=0;entryDy=0;exitX=1;exitY=0;exitDx=0;exitDy=0;" parent="WIyWlLk6GJQsqaUBKTNV-1" source="ZTby4JIDLadT5wWPWZZM-237" target="ZTby4JIDLadT5wWPWZZM-5" edge="1">
          <mxGeometry x="0.0526" width="160" relative="1" as="geometry">
            <mxPoint x="-1370" y="245" as="sourcePoint" />
            <mxPoint x="-1850" y="10" as="targetPoint" />
            <Array as="points">
              <mxPoint x="-1080" y="180" />
              <mxPoint x="-1080" y="43" />
            </Array>
            <mxPoint as="offset" />
          </mxGeometry>
        </mxCell>
        <mxCell id="ZTby4JIDLadT5wWPWZZM-706" value="" style="endArrow=block;endSize=16;endFill=0;html=1;rounded=0;entryX=0;entryY=0;entryDx=0;entryDy=0;exitX=1;exitY=0;exitDx=0;exitDy=0;" parent="WIyWlLk6GJQsqaUBKTNV-1" source="ZTby4JIDLadT5wWPWZZM-269" target="ZTby4JIDLadT5wWPWZZM-5" edge="1">
          <mxGeometry x="0.0085" y="7" width="160" relative="1" as="geometry">
            <mxPoint x="-1369.9999999999998" y="109" as="sourcePoint" />
            <mxPoint x="-1130" y="-50" as="targetPoint" />
            <Array as="points" />
            <mxPoint as="offset" />
          </mxGeometry>
        </mxCell>
        <mxCell id="ZTby4JIDLadT5wWPWZZM-707" value="" style="endArrow=block;endSize=16;endFill=0;html=1;rounded=0;entryX=1;entryY=0;entryDx=0;entryDy=0;exitX=-0.005;exitY=0.056;exitDx=0;exitDy=0;exitPerimeter=0;" parent="WIyWlLk6GJQsqaUBKTNV-1" source="ZTby4JIDLadT5wWPWZZM-257" target="ZTby4JIDLadT5wWPWZZM-5" edge="1">
          <mxGeometry x="0.0539" width="160" relative="1" as="geometry">
            <mxPoint x="-520" y="97" as="sourcePoint" />
            <mxPoint x="-120" y="-7" as="targetPoint" />
            <Array as="points" />
            <mxPoint as="offset" />
          </mxGeometry>
        </mxCell>
        <mxCell id="ZTby4JIDLadT5wWPWZZM-708" value="«abstract»&lt;br style=&quot;border-color: var(--border-color);&quot;&gt;Character" style="swimlane;fontStyle=1;align=center;verticalAlign=top;childLayout=stackLayout;horizontal=1;startSize=40;horizontalStack=0;resizeParent=1;resizeParentMax=0;resizeLast=0;collapsible=1;marginBottom=0;whiteSpace=wrap;html=1;" parent="WIyWlLk6GJQsqaUBKTNV-1" vertex="1">
          <mxGeometry x="-1035" y="876" width="330" height="260" as="geometry" />
        </mxCell>
        <mxCell id="ZTby4JIDLadT5wWPWZZM-709" value="- remainingActions: int&lt;div&gt;# currentRoom: Room&lt;/div&gt;&lt;div&gt;- stunnedRounds: int&lt;/div&gt;" style="text;strokeColor=none;fillColor=none;align=left;verticalAlign=top;spacingLeft=4;spacingRight=4;overflow=hidden;rotatable=0;points=[[0,0.5],[1,0.5]];portConstraint=eastwest;whiteSpace=wrap;html=1;" parent="ZTby4JIDLadT5wWPWZZM-708" vertex="1">
          <mxGeometry y="40" width="330" height="50" as="geometry" />
        </mxCell>
        <mxCell id="ZTby4JIDLadT5wWPWZZM-710" value="" style="line;strokeWidth=1;fillColor=none;align=left;verticalAlign=middle;spacingTop=-1;spacingLeft=3;spacingRight=3;rotatable=0;labelPosition=right;points=[];portConstraint=eastwest;strokeColor=inherit;" parent="ZTby4JIDLadT5wWPWZZM-708" vertex="1">
          <mxGeometry y="90" width="330" height="8" as="geometry" />
        </mxCell>
        <mxCell id="ZTby4JIDLadT5wWPWZZM-711" value="&lt;i&gt;+ move(Room, Room): void&lt;br&gt;+ pickUpItem(Item): void&lt;br&gt;+ action(): void&lt;/i&gt;&lt;div&gt;&lt;i&gt;+ meetStudent(Student): void&lt;br&gt;+ meetInstructor(Instructor): void&lt;/i&gt;&lt;div&gt;&lt;i&gt;+ startRound(int): void&lt;/i&gt;&lt;/div&gt;&lt;div&gt;+ getRoom(): Room&lt;/div&gt;&lt;div&gt;+ stun(int): void&lt;/div&gt;&lt;/div&gt;&lt;div&gt;&lt;i&gt;+ meetCleaner(Cleaner): void&lt;/i&gt;&lt;/div&gt;&lt;div&gt;+ forceMove(): void&lt;/div&gt;" style="text;strokeColor=none;fillColor=none;align=left;verticalAlign=top;spacingLeft=4;spacingRight=4;overflow=hidden;rotatable=0;points=[[0,0.5],[1,0.5]];portConstraint=eastwest;whiteSpace=wrap;html=1;" parent="ZTby4JIDLadT5wWPWZZM-708" vertex="1">
          <mxGeometry y="98" width="330" height="162" as="geometry" />
        </mxCell>
        <mxCell id="ZTby4JIDLadT5wWPWZZM-712" value="Student" style="swimlane;fontStyle=1;align=center;verticalAlign=top;childLayout=stackLayout;horizontal=1;startSize=26;horizontalStack=0;resizeParent=1;resizeParentMax=0;resizeLast=0;collapsible=1;marginBottom=0;whiteSpace=wrap;html=1;" parent="WIyWlLk6GJQsqaUBKTNV-1" vertex="1">
          <mxGeometry x="-1310" y="990" width="260" height="430" as="geometry" />
        </mxCell>
        <mxCell id="ZTby4JIDLadT5wWPWZZM-713" value="- maskedRounds: int&amp;nbsp;&lt;br&gt;&lt;div&gt;&lt;span style=&quot;background-color: initial;&quot;&gt;- inventorySize: int&lt;/span&gt;&lt;/div&gt;" style="text;strokeColor=none;fillColor=none;align=left;verticalAlign=top;spacingLeft=4;spacingRight=4;overflow=hidden;rotatable=0;points=[[0,0.5],[1,0.5]];portConstraint=eastwest;whiteSpace=wrap;html=1;" parent="ZTby4JIDLadT5wWPWZZM-712" vertex="1">
          <mxGeometry y="26" width="260" height="54" as="geometry" />
        </mxCell>
        <mxCell id="ZTby4JIDLadT5wWPWZZM-714" value="" style="line;strokeWidth=1;fillColor=none;align=left;verticalAlign=middle;spacingTop=-1;spacingLeft=3;spacingRight=3;rotatable=0;labelPosition=right;points=[];portConstraint=eastwest;strokeColor=inherit;" parent="ZTby4JIDLadT5wWPWZZM-712" vertex="1">
          <mxGeometry y="80" width="260" height="8" as="geometry" />
        </mxCell>
        <mxCell id="ZTby4JIDLadT5wWPWZZM-715" value="+ dropItem(Item): void&lt;br&gt;+ useItem(Item): void&lt;div&gt;+ move(Room, Room): void&lt;br&gt;+ pickUpItem(Item): void&lt;br&gt;+ action(): void&lt;br&gt;+ meetStudent(Student): void&lt;br&gt;+ meetInstructor(Instructor): void&lt;div&gt;+ startRound(int): void&lt;/div&gt;&lt;/div&gt;&lt;div&gt;&lt;span style=&quot;background-color: initial;&quot;&gt;+ rollDice(): int&lt;/span&gt;&lt;br&gt;&lt;/div&gt;&lt;div&gt;+ transistorJump(): void&lt;/div&gt;&lt;div&gt;+ addTransistor(Transistor): void&lt;/div&gt;&lt;div&gt;+ getTransistor(int): Transistor&lt;/div&gt;&lt;div&gt;&lt;span style=&quot;background-color: initial;&quot;&gt;+ addMaskedRounds(int): void&lt;/span&gt;&lt;br&gt;&lt;/div&gt;&lt;div&gt;+ getTVSZ(): TVSZ&lt;/div&gt;&lt;div&gt;+ addTVSZ(TVSZ): void&lt;/div&gt;&lt;div&gt;+ removeItem(Item): void&lt;/div&gt;&lt;div&gt;+ die(Instructor): void&lt;/div&gt;&lt;div&gt;+ idle(): void&lt;/div&gt;&lt;div&gt;+ pairLastTwoTransistor(): void&lt;/div&gt;&lt;div&gt;+ dropRandomItem(): void&lt;/div&gt;&lt;div&gt;+ meetCleaner(Cleaner): void&lt;br&gt;&lt;/div&gt;" style="text;strokeColor=none;fillColor=none;align=left;verticalAlign=top;spacingLeft=4;spacingRight=4;overflow=hidden;rotatable=0;points=[[0,0.5],[1,0.5]];portConstraint=eastwest;whiteSpace=wrap;html=1;" parent="ZTby4JIDLadT5wWPWZZM-712" vertex="1">
          <mxGeometry y="88" width="260" height="342" as="geometry" />
        </mxCell>
        <mxCell id="ZTby4JIDLadT5wWPWZZM-716" value="Instructor" style="swimlane;fontStyle=1;align=center;verticalAlign=top;childLayout=stackLayout;horizontal=1;startSize=26;horizontalStack=0;resizeParent=1;resizeParentMax=0;resizeLast=0;collapsible=1;marginBottom=0;whiteSpace=wrap;html=1;" parent="WIyWlLk6GJQsqaUBKTNV-1" vertex="1">
          <mxGeometry x="-670" y="920" width="240" height="150" as="geometry" />
        </mxCell>
        <mxCell id="ZTby4JIDLadT5wWPWZZM-718" value="" style="line;strokeWidth=1;fillColor=none;align=left;verticalAlign=middle;spacingTop=-1;spacingLeft=3;spacingRight=3;rotatable=0;labelPosition=right;points=[];portConstraint=eastwest;strokeColor=inherit;" parent="ZTby4JIDLadT5wWPWZZM-716" vertex="1">
          <mxGeometry y="26" width="240" height="8" as="geometry" />
        </mxCell>
        <mxCell id="akZmPor6qZCUniB-4no1-0" value="+ move(Room, Room): void&lt;br&gt;+ pickUpItem(Item): void&lt;br&gt;+ action(): void&lt;br&gt;+ meetStudent(Student): void&lt;br&gt;+ meetInstructor(Instructor): void&lt;div&gt;+ startRound(int): void&lt;/div&gt;&lt;div&gt;+ meetCleaner(Cleaner): void&lt;br&gt;&lt;/div&gt;" style="text;strokeColor=none;fillColor=none;align=left;verticalAlign=top;spacingLeft=4;spacingRight=4;overflow=hidden;rotatable=0;points=[[0,0.5],[1,0.5]];portConstraint=eastwest;whiteSpace=wrap;html=1;" parent="ZTby4JIDLadT5wWPWZZM-716" vertex="1">
          <mxGeometry y="34" width="240" height="116" as="geometry" />
        </mxCell>
        <mxCell id="ZTby4JIDLadT5wWPWZZM-722" value="" style="endArrow=block;endSize=16;endFill=0;html=1;rounded=0;exitX=0.5;exitY=0;exitDx=0;exitDy=0;entryX=0;entryY=0.5;entryDx=0;entryDy=0;" parent="WIyWlLk6GJQsqaUBKTNV-1" source="ZTby4JIDLadT5wWPWZZM-712" target="ZTby4JIDLadT5wWPWZZM-709" edge="1">
          <mxGeometry width="160" relative="1" as="geometry">
            <mxPoint x="-470" y="370" as="sourcePoint" />
            <mxPoint x="-440" y="380" as="targetPoint" />
            <Array as="points">
              <mxPoint x="-1180" y="955" />
            </Array>
          </mxGeometry>
        </mxCell>
        <mxCell id="ZTby4JIDLadT5wWPWZZM-724" value="&lt;div&gt;&amp;lt;&amp;lt;singleton&amp;gt;&amp;gt;&lt;/div&gt;GameController" style="swimlane;fontStyle=1;align=center;verticalAlign=top;childLayout=stackLayout;horizontal=1;startSize=40;horizontalStack=0;resizeParent=1;resizeParentMax=0;resizeLast=0;collapsible=1;marginBottom=0;whiteSpace=wrap;html=1;" parent="WIyWlLk6GJQsqaUBKTNV-1" vertex="1">
          <mxGeometry x="-690" y="1106" width="280" height="264" as="geometry" />
        </mxCell>
        <mxCell id="ZTby4JIDLadT5wWPWZZM-725" value="- remainingRounds: int&lt;br&gt;&lt;div&gt;&lt;span style=&quot;background-color: initial;&quot;&gt;- studentCount: int&lt;/span&gt;&lt;br&gt;&lt;/div&gt;&lt;div&gt;&lt;br&gt;&lt;/div&gt;" style="text;strokeColor=none;fillColor=none;align=left;verticalAlign=top;spacingLeft=4;spacingRight=4;overflow=hidden;rotatable=0;points=[[0,0.5],[1,0.5]];portConstraint=eastwest;whiteSpace=wrap;html=1;" parent="ZTby4JIDLadT5wWPWZZM-724" vertex="1">
          <mxGeometry y="40" width="280" height="44" as="geometry" />
        </mxCell>
        <mxCell id="ZTby4JIDLadT5wWPWZZM-726" value="" style="line;strokeWidth=1;fillColor=none;align=left;verticalAlign=middle;spacingTop=-1;spacingLeft=3;spacingRight=3;rotatable=0;labelPosition=right;points=[];portConstraint=eastwest;strokeColor=inherit;" parent="ZTby4JIDLadT5wWPWZZM-724" vertex="1">
          <mxGeometry y="84" width="280" height="8" as="geometry" />
        </mxCell>
        <mxCell id="ZTby4JIDLadT5wWPWZZM-727" value="+ slideRulePickedUp(): void&lt;div&gt;+ GameController(List&amp;lt;Character&amp;gt;, List&amp;lt;Room&amp;gt;)&lt;/div&gt;&lt;div&gt;+ splitRoom(Room): void&lt;/div&gt;&lt;div&gt;+ mergeRooms(Room, Room): void&lt;/div&gt;&lt;div&gt;+ addRoom(Room): void&lt;/div&gt;&lt;div&gt;+ removeRoom(Room): void&lt;/div&gt;&lt;div&gt;+ newRound(): void&lt;/div&gt;&lt;div&gt;+ endGame(): void&lt;/div&gt;&lt;div&gt;+ removePlayer(Character): void&lt;/div&gt;&lt;div&gt;+ play(): void&lt;/div&gt;&lt;div&gt;+ rollDice(): int&lt;/div&gt;" style="text;strokeColor=none;fillColor=none;align=left;verticalAlign=top;spacingLeft=4;spacingRight=4;overflow=hidden;rotatable=0;points=[[0,0.5],[1,0.5]];portConstraint=eastwest;whiteSpace=wrap;html=1;" parent="ZTby4JIDLadT5wWPWZZM-724" vertex="1">
          <mxGeometry y="92" width="280" height="172" as="geometry" />
        </mxCell>
        <mxCell id="ZTby4JIDLadT5wWPWZZM-729" value="GameInitializer" style="swimlane;fontStyle=1;align=center;verticalAlign=top;childLayout=stackLayout;horizontal=1;startSize=26;horizontalStack=0;resizeParent=1;resizeParentMax=0;resizeLast=0;collapsible=1;marginBottom=0;whiteSpace=wrap;html=1;" parent="WIyWlLk6GJQsqaUBKTNV-1" vertex="1">
          <mxGeometry x="-972" y="1240" width="200" height="120" as="geometry" />
        </mxCell>
        <mxCell id="ZTby4JIDLadT5wWPWZZM-731" value="" style="line;strokeWidth=1;fillColor=none;align=left;verticalAlign=middle;spacingTop=-1;spacingLeft=3;spacingRight=3;rotatable=0;labelPosition=right;points=[];portConstraint=eastwest;strokeColor=inherit;" parent="ZTby4JIDLadT5wWPWZZM-729" vertex="1">
          <mxGeometry y="26" width="200" height="34" as="geometry" />
        </mxCell>
        <mxCell id="ZTby4JIDLadT5wWPWZZM-732" value="+ initMaps(string): void&lt;br&gt;+ initCharacters(int): void" style="text;strokeColor=none;fillColor=none;align=left;verticalAlign=top;spacingLeft=4;spacingRight=4;overflow=hidden;rotatable=0;points=[[0,0.5],[1,0.5]];portConstraint=eastwest;whiteSpace=wrap;html=1;" parent="ZTby4JIDLadT5wWPWZZM-729" vertex="1">
          <mxGeometry y="60" width="200" height="60" as="geometry" />
        </mxCell>
        <mxCell id="ZTby4JIDLadT5wWPWZZM-733" value="&lt;div&gt;&lt;span style=&quot;font-weight: 400;&quot;&gt;«abstract»&lt;/span&gt;&lt;br&gt;&lt;/div&gt;Room" style="swimlane;fontStyle=1;align=center;verticalAlign=top;childLayout=stackLayout;horizontal=1;startSize=40;horizontalStack=0;resizeParent=1;resizeParentMax=0;resizeLast=0;collapsible=1;marginBottom=0;whiteSpace=wrap;html=1;" parent="WIyWlLk6GJQsqaUBKTNV-1" vertex="1">
          <mxGeometry x="-1005" y="460" width="290" height="380" as="geometry" />
        </mxCell>
        <mxCell id="ZTby4JIDLadT5wWPWZZM-734" value="- transistor: Transistor&lt;br&gt;- maxCharacter: int&lt;div&gt;- stepCount: int&lt;/div&gt;" style="text;strokeColor=none;fillColor=none;align=left;verticalAlign=top;spacingLeft=4;spacingRight=4;overflow=hidden;rotatable=0;points=[[0,0.5],[1,0.5]];portConstraint=eastwest;whiteSpace=wrap;html=1;" parent="ZTby4JIDLadT5wWPWZZM-733" vertex="1">
          <mxGeometry y="40" width="290" height="50" as="geometry" />
        </mxCell>
        <mxCell id="ZTby4JIDLadT5wWPWZZM-735" value="" style="line;strokeWidth=1;fillColor=none;align=left;verticalAlign=middle;spacingTop=-1;spacingLeft=3;spacingRight=3;rotatable=0;labelPosition=right;points=[];portConstraint=eastwest;strokeColor=inherit;" parent="ZTby4JIDLadT5wWPWZZM-733" vertex="1">
          <mxGeometry y="90" width="290" height="8" as="geometry" />
        </mxCell>
        <mxCell id="ZTby4JIDLadT5wWPWZZM-736" value="&lt;div&gt;&lt;i style=&quot;background-color: initial;&quot;&gt;+&amp;nbsp;onEntered(Character): void&lt;/i&gt;&lt;br&gt;&lt;/div&gt;+ addCharacter(Character): void&lt;div&gt;+&lt;span style=&quot;background-color: initial; text-align: center;&quot;&gt;&amp;nbsp;isAccessible(Room): boolean&lt;/span&gt;&lt;/div&gt;&lt;div&gt;&lt;span style=&quot;background-color: initial; text-align: center;&quot;&gt;+&lt;/span&gt;&lt;span style=&quot;background-color: initial; text-align: center;&quot;&gt;&amp;nbsp;getCharacters(): List&amp;lt;Character&amp;gt;&lt;/span&gt;&lt;/div&gt;&lt;div&gt;&lt;span style=&quot;background-color: initial; text-align: center;&quot;&gt;+&lt;/span&gt;&lt;span style=&quot;background-color: initial; text-align: center;&quot;&gt;&amp;nbsp;removeCharacter(Character): void&lt;/span&gt;&lt;/div&gt;&lt;div&gt;&lt;span style=&quot;background-color: initial; text-align: center;&quot;&gt;+&amp;nbsp;&lt;/span&gt;&lt;span style=&quot;background-color: initial; text-align: center;&quot;&gt;removeItem(Item): void&lt;/span&gt;&lt;/div&gt;&lt;div&gt;&lt;span style=&quot;background-color: initial; text-align: center;&quot;&gt;+&amp;nbsp;&lt;/span&gt;&lt;span style=&quot;background-color: initial; text-align: center;&quot;&gt;addItem(Item): void&lt;/span&gt;&lt;/div&gt;&lt;div&gt;&lt;span style=&quot;background-color: initial; text-align: center;&quot;&gt;+&amp;nbsp;&lt;/span&gt;&lt;span style=&quot;background-color: initial; text-align: center;&quot;&gt;addItems(List&amp;lt;Item&amp;gt;): void&lt;/span&gt;&lt;/div&gt;&lt;div&gt;&lt;span style=&quot;background-color: initial; text-align: center;&quot;&gt;+&amp;nbsp;&lt;/span&gt;&lt;span style=&quot;background-color: initial; text-align: center;&quot;&gt;getItems(): List&amp;lt;Item&amp;gt;&lt;/span&gt;&lt;/div&gt;&lt;div&gt;&lt;span style=&quot;background-color: initial; text-align: center;&quot;&gt;+&amp;nbsp;&lt;/span&gt;&lt;span style=&quot;background-color: initial; text-align: center;&quot;&gt;getNeighbours(): List&amp;lt;Room&amp;gt;&lt;/span&gt;&lt;/div&gt;&lt;div&gt;&lt;span style=&quot;background-color: initial; text-align: center;&quot;&gt;+&amp;nbsp;&lt;/span&gt;&lt;span style=&quot;background-color: initial; text-align: center;&quot;&gt;addNeighbours(List&amp;lt;Room&amp;gt;): void&lt;/span&gt;&lt;/div&gt;&lt;div&gt;&lt;span style=&quot;background-color: initial; text-align: center;&quot;&gt;+&amp;nbsp;&lt;/span&gt;&lt;span style=&quot;background-color: initial; text-align: center;&quot;&gt;removeNeigbours(List&amp;lt;Room&amp;gt;): void&lt;/span&gt;&lt;/div&gt;&lt;div&gt;&lt;span style=&quot;background-color: initial; text-align: center;&quot;&gt;+ getTransistor(): Transistor&lt;/span&gt;&lt;/div&gt;&lt;div&gt;&lt;span style=&quot;background-color: initial; text-align: center;&quot;&gt;+ splitTo(Room): void&lt;/span&gt;&lt;/div&gt;&lt;div&gt;&lt;span style=&quot;background-color: initial; text-align: center;&quot;&gt;+ mergeTo(Room): void&lt;/span&gt;&lt;/div&gt;&lt;div&gt;&lt;span style=&quot;background-color: initial; text-align: center;&quot;&gt;+ copyToRoom(Room): void&lt;/span&gt;&lt;/div&gt;&lt;div&gt;&lt;span style=&quot;background-color: initial; text-align: center;&quot;&gt;+ addTransistor(Transistor): void&lt;/span&gt;&lt;/div&gt;&lt;div&gt;&lt;span style=&quot;background-color: initial; text-align: center;&quot;&gt;+ addWetRag(WetRag): void&lt;/span&gt;&lt;/div&gt;&lt;div&gt;&lt;span style=&quot;background-color: initial; text-align: center;&quot;&gt;+ pickUp(Item, Student): void&lt;/span&gt;&lt;/div&gt;" style="text;strokeColor=none;fillColor=none;align=left;verticalAlign=top;spacingLeft=4;spacingRight=4;overflow=hidden;rotatable=0;points=[[0,0.5],[1,0.5]];portConstraint=eastwest;whiteSpace=wrap;html=1;" parent="ZTby4JIDLadT5wWPWZZM-733" vertex="1">
          <mxGeometry y="98" width="290" height="282" as="geometry" />
        </mxCell>
        <mxCell id="tU1RXB6sjVHyV0XETc9N-3" value="" style="endArrow=open;endFill=1;endSize=12;html=1;rounded=0;entryX=-0.005;entryY=0.056;entryDx=0;entryDy=0;entryPerimeter=0;exitX=0.996;exitY=0.153;exitDx=0;exitDy=0;exitPerimeter=0;" parent="WIyWlLk6GJQsqaUBKTNV-1" source="ZTby4JIDLadT5wWPWZZM-729" target="ZTby4JIDLadT5wWPWZZM-727" edge="1">
          <mxGeometry width="160" relative="1" as="geometry">
            <mxPoint x="-769.44" y="1338" as="sourcePoint" />
            <mxPoint x="-460.00000000000017" y="1315.996" as="targetPoint" />
          </mxGeometry>
        </mxCell>
        <mxCell id="tU1RXB6sjVHyV0XETc9N-4" value="" style="endArrow=open;endFill=1;endSize=12;html=1;rounded=0;exitX=0.5;exitY=0;exitDx=0;exitDy=0;entryX=0.494;entryY=1;entryDx=0;entryDy=0;entryPerimeter=0;" parent="WIyWlLk6GJQsqaUBKTNV-1" source="ZTby4JIDLadT5wWPWZZM-729" target="ZTby4JIDLadT5wWPWZZM-711" edge="1">
          <mxGeometry width="160" relative="1" as="geometry">
            <mxPoint x="-90" y="374.5" as="sourcePoint" />
            <mxPoint x="-890" y="600" as="targetPoint" />
          </mxGeometry>
        </mxCell>
        <mxCell id="PiwRGH1vhzkt8AP9iZih-4" value="" style="endArrow=block;endSize=16;endFill=0;html=1;rounded=0;entryX=1.001;entryY=0.883;entryDx=0;entryDy=0;entryPerimeter=0;" parent="WIyWlLk6GJQsqaUBKTNV-1" target="ZTby4JIDLadT5wWPWZZM-709" edge="1">
          <mxGeometry width="160" relative="1" as="geometry">
            <mxPoint x="-670" y="960" as="sourcePoint" />
            <mxPoint x="-720" y="590" as="targetPoint" />
            <Array as="points">
              <mxPoint x="-670" y="960" />
            </Array>
          </mxGeometry>
        </mxCell>
        <mxCell id="PiwRGH1vhzkt8AP9iZih-5" value="" style="endArrow=open;endFill=1;endSize=12;html=1;rounded=0;exitX=0;exitY=0.5;exitDx=0;exitDy=0;entryX=-0.004;entryY=0.737;entryDx=0;entryDy=0;entryPerimeter=0;" parent="WIyWlLk6GJQsqaUBKTNV-1" source="ZTby4JIDLadT5wWPWZZM-269" target="ZTby4JIDLadT5wWPWZZM-727" edge="1">
          <mxGeometry width="160" relative="1" as="geometry">
            <mxPoint x="-1550" y="230" as="sourcePoint" />
            <mxPoint x="-300" y="1540" as="targetPoint" />
            <Array as="points">
              <mxPoint x="-1400" y="90" />
              <mxPoint x="-1390" y="1460" />
              <mxPoint x="-740" y="1460" />
            </Array>
          </mxGeometry>
        </mxCell>
        <mxCell id="ZTby4JIDLadT5wWPWZZM-241" value="Transistor" style="swimlane;fontStyle=1;align=center;verticalAlign=top;childLayout=stackLayout;horizontal=1;startSize=26;horizontalStack=0;resizeParent=1;resizeParentMax=0;resizeLast=0;collapsible=1;marginBottom=0;whiteSpace=wrap;html=1;" parent="WIyWlLk6GJQsqaUBKTNV-1" vertex="1">
          <mxGeometry x="-795" y="198" width="225" height="240" as="geometry" />
        </mxCell>
        <mxCell id="WyQ1bJz3u44lY2joad9U-0" value="&lt;div&gt;- isOn: boolean&lt;/div&gt;&lt;div&gt;- isPaired: boolean&lt;/div&gt;&lt;div&gt;- pair: Transistor&lt;/div&gt;" style="text;strokeColor=none;fillColor=none;align=left;verticalAlign=top;spacingLeft=4;spacingRight=4;overflow=hidden;rotatable=0;points=[[0,0.5],[1,0.5]];portConstraint=eastwest;whiteSpace=wrap;html=1;" parent="ZTby4JIDLadT5wWPWZZM-241" vertex="1">
          <mxGeometry y="26" width="225" height="84" as="geometry" />
        </mxCell>
        <mxCell id="ZTby4JIDLadT5wWPWZZM-243" value="" style="line;strokeWidth=1;fillColor=none;align=left;verticalAlign=middle;spacingTop=-1;spacingLeft=3;spacingRight=3;rotatable=0;labelPosition=right;points=[];portConstraint=eastwest;strokeColor=inherit;" parent="ZTby4JIDLadT5wWPWZZM-241" vertex="1">
          <mxGeometry y="110" width="225" height="8" as="geometry" />
        </mxCell>
        <mxCell id="ZTby4JIDLadT5wWPWZZM-244" value="+ pairing(Transistor): void&lt;div&gt;+ use(Student): void&lt;br&gt;&lt;/div&gt;&lt;div&gt;+&amp;nbsp;&lt;span style=&quot;background-color: initial;&quot;&gt;canInstructorPickUp(): boolean&lt;/span&gt;&lt;/div&gt;&lt;div&gt;&lt;span style=&quot;background-color: initial;&quot;&gt;+ getPairsRoom(): Room&lt;/span&gt;&lt;/div&gt;&lt;div&gt;&lt;span style=&quot;background-color: initial;&quot;&gt;+ pairing(Transistor): void&lt;/span&gt;&lt;/div&gt;&lt;div&gt;+ onPickedUp(Student): void&lt;br style=&quot;border-color: var(--border-color);&quot;&gt;+ onRoundStart(Student): void&lt;br style=&quot;border-color: var(--border-color);&quot;&gt;+ onAttacked(Student, Instructor): bool&lt;span style=&quot;background-color: initial;&quot;&gt;&lt;br&gt;&lt;/span&gt;&lt;/div&gt;" style="text;strokeColor=none;fillColor=none;align=left;verticalAlign=top;spacingLeft=4;spacingRight=4;overflow=hidden;rotatable=0;points=[[0,0.5],[1,0.5]];portConstraint=eastwest;whiteSpace=wrap;html=1;" parent="ZTby4JIDLadT5wWPWZZM-241" vertex="1">
          <mxGeometry y="118" width="225" height="122" as="geometry" />
        </mxCell>
        <mxCell id="LWb54_HK2BMXyp2uk4u7-47" value="" style="endArrow=none;html=1;rounded=0;exitX=1.006;exitY=0.874;exitDx=0;exitDy=0;exitPerimeter=0;entryX=0.996;entryY=0.287;entryDx=0;entryDy=0;entryPerimeter=0;" parent="ZTby4JIDLadT5wWPWZZM-241" source="ZTby4JIDLadT5wWPWZZM-244" target="ZTby4JIDLadT5wWPWZZM-244" edge="1">
          <mxGeometry width="50" height="50" relative="1" as="geometry">
            <mxPoint x="200" y="226" as="sourcePoint" />
            <mxPoint x="250" y="176" as="targetPoint" />
            <Array as="points">
              <mxPoint x="255" y="225" />
              <mxPoint x="255" y="153" />
            </Array>
          </mxGeometry>
        </mxCell>
        <mxCell id="jxGl7hStziKppLYoiM49-4" value="&lt;span style=&quot;font-size: 12px; text-align: left; text-wrap: wrap; background-color: rgb(251, 251, 251);&quot;&gt;- pair: Transistor&lt;/span&gt;&lt;div&gt;&lt;span style=&quot;font-size: 12px; text-align: left; text-wrap: wrap; background-color: rgb(251, 251, 251);&quot;&gt;&lt;br&gt;&lt;/span&gt;&lt;/div&gt;" style="edgeLabel;html=1;align=center;verticalAlign=middle;resizable=0;points=[];" parent="LWb54_HK2BMXyp2uk4u7-47" vertex="1" connectable="0">
          <mxGeometry x="0.0151" y="-1" relative="1" as="geometry">
            <mxPoint as="offset" />
          </mxGeometry>
        </mxCell>
        <mxCell id="akZmPor6qZCUniB-4no1-14" value="RegularRoom" style="swimlane;fontStyle=1;align=center;verticalAlign=top;childLayout=stackLayout;horizontal=1;startSize=26;horizontalStack=0;resizeParent=1;resizeParentMax=0;resizeLast=0;collapsible=1;marginBottom=0;whiteSpace=wrap;html=1;" parent="WIyWlLk6GJQsqaUBKTNV-1" vertex="1">
          <mxGeometry x="-1190" y="600" width="170" height="70" as="geometry" />
        </mxCell>
        <mxCell id="akZmPor6qZCUniB-4no1-16" value="" style="line;strokeWidth=1;fillColor=none;align=left;verticalAlign=middle;spacingTop=-1;spacingLeft=3;spacingRight=3;rotatable=0;labelPosition=right;points=[];portConstraint=eastwest;strokeColor=inherit;" parent="akZmPor6qZCUniB-4no1-14" vertex="1">
          <mxGeometry y="26" width="170" height="8" as="geometry" />
        </mxCell>
        <mxCell id="akZmPor6qZCUniB-4no1-27" value="&lt;div&gt;&lt;span style=&quot;background-color: initial;&quot;&gt;+ onEntered(Character): void&lt;/span&gt;&lt;br&gt;&lt;/div&gt;" style="text;strokeColor=none;fillColor=none;align=left;verticalAlign=top;spacingLeft=4;spacingRight=4;overflow=hidden;rotatable=0;points=[[0,0.5],[1,0.5]];portConstraint=eastwest;whiteSpace=wrap;html=1;" parent="akZmPor6qZCUniB-4no1-14" vertex="1">
          <mxGeometry y="34" width="170" height="36" as="geometry" />
        </mxCell>
        <mxCell id="akZmPor6qZCUniB-4no1-19" value="" style="endArrow=block;endSize=16;endFill=0;html=1;rounded=0;exitX=0.447;exitY=0.004;exitDx=0;exitDy=0;exitPerimeter=0;entryX=0.003;entryY=0.115;entryDx=0;entryDy=0;entryPerimeter=0;" parent="WIyWlLk6GJQsqaUBKTNV-1" source="akZmPor6qZCUniB-4no1-14" target="ZTby4JIDLadT5wWPWZZM-736" edge="1">
          <mxGeometry width="160" relative="1" as="geometry">
            <mxPoint x="-920" y="980" as="sourcePoint" />
            <mxPoint x="-760" y="980" as="targetPoint" />
            <Array as="points">
              <mxPoint x="-1114" y="590" />
            </Array>
          </mxGeometry>
        </mxCell>
        <mxCell id="akZmPor6qZCUniB-4no1-20" value="GasRoom" style="swimlane;fontStyle=1;align=center;verticalAlign=top;childLayout=stackLayout;horizontal=1;startSize=26;horizontalStack=0;resizeParent=1;resizeParentMax=0;resizeLast=0;collapsible=1;marginBottom=0;whiteSpace=wrap;html=1;" parent="WIyWlLk6GJQsqaUBKTNV-1" vertex="1">
          <mxGeometry x="-701.5" y="720" width="190" height="70" as="geometry" />
        </mxCell>
        <mxCell id="akZmPor6qZCUniB-4no1-22" value="" style="line;strokeWidth=1;fillColor=none;align=left;verticalAlign=middle;spacingTop=-1;spacingLeft=3;spacingRight=3;rotatable=0;labelPosition=right;points=[];portConstraint=eastwest;strokeColor=inherit;" parent="akZmPor6qZCUniB-4no1-20" vertex="1">
          <mxGeometry y="26" width="190" height="8" as="geometry" />
        </mxCell>
        <mxCell id="akZmPor6qZCUniB-4no1-28" value="&lt;div&gt;&lt;span style=&quot;background-color: initial;&quot;&gt;+ onEntered(Character): void&lt;/span&gt;&lt;br&gt;&lt;/div&gt;" style="text;strokeColor=none;fillColor=none;align=left;verticalAlign=top;spacingLeft=4;spacingRight=4;overflow=hidden;rotatable=0;points=[[0,0.5],[1,0.5]];portConstraint=eastwest;whiteSpace=wrap;html=1;" parent="akZmPor6qZCUniB-4no1-20" vertex="1">
          <mxGeometry y="34" width="190" height="36" as="geometry" />
        </mxCell>
        <mxCell id="akZmPor6qZCUniB-4no1-24" value="" style="endArrow=block;endSize=16;endFill=0;html=1;rounded=0;exitX=0.483;exitY=-0.006;exitDx=0;exitDy=0;entryX=1.001;entryY=0.485;entryDx=0;entryDy=0;entryPerimeter=0;exitPerimeter=0;" parent="WIyWlLk6GJQsqaUBKTNV-1" source="akZmPor6qZCUniB-4no1-20" edge="1">
          <mxGeometry width="160" relative="1" as="geometry">
            <mxPoint x="-800" y="580" as="sourcePoint" />
            <mxPoint x="-714.71" y="699.9200000000001" as="targetPoint" />
            <Array as="points">
              <mxPoint x="-610" y="700" />
            </Array>
          </mxGeometry>
        </mxCell>
        <mxCell id="LWb54_HK2BMXyp2uk4u7-0" value="" style="endArrow=open;endFill=1;endSize=12;html=1;rounded=0;exitX=0.419;exitY=0.033;exitDx=0;exitDy=0;exitPerimeter=0;entryX=0.389;entryY=1.005;entryDx=0;entryDy=0;entryPerimeter=0;" parent="WIyWlLk6GJQsqaUBKTNV-1" source="LWb54_HK2BMXyp2uk4u7-3" target="ZTby4JIDLadT5wWPWZZM-8" edge="1">
          <mxGeometry width="160" relative="1" as="geometry">
            <mxPoint x="-900" y="310" as="sourcePoint" />
            <mxPoint x="-740" y="310" as="targetPoint" />
          </mxGeometry>
        </mxCell>
        <mxCell id="LWb54_HK2BMXyp2uk4u7-7" value="&lt;span style=&quot;text-align: left; font-weight: normal;&quot;&gt;&lt;font style=&quot;font-size: 9px;&quot;&gt;- listOfNeighbours: List&amp;lt;Room&amp;gt;&lt;/font&gt;&lt;/span&gt;" style="text;align=center;fontStyle=1;verticalAlign=middle;spacingLeft=3;spacingRight=3;strokeColor=none;rotatable=0;points=[[0,0.5],[1,0.5]];portConstraint=eastwest;html=1;" parent="WIyWlLk6GJQsqaUBKTNV-1" vertex="1">
          <mxGeometry x="-620" y="480" width="60" height="20" as="geometry" />
        </mxCell>
        <mxCell id="LWb54_HK2BMXyp2uk4u7-3" value="&lt;div style=&quot;&quot;&gt;&lt;font style=&quot;font-weight: normal; font-size: 9px;&quot;&gt;- inventory: List&amp;lt;Item&amp;gt;&lt;/font&gt;&lt;/div&gt;" style="text;align=left;fontStyle=1;verticalAlign=middle;spacingLeft=3;spacingRight=3;strokeColor=none;rotatable=0;points=[[0,0.5],[1,0.5]];portConstraint=eastwest;html=1;" parent="WIyWlLk6GJQsqaUBKTNV-1" vertex="1">
          <mxGeometry x="-917" y="230" width="90" height="20" as="geometry" />
        </mxCell>
        <mxCell id="LWb54_HK2BMXyp2uk4u7-13" value="" style="endArrow=none;html=1;rounded=0;exitX=0.429;exitY=0.001;exitDx=0;exitDy=0;exitPerimeter=0;entryX=0.411;entryY=1.083;entryDx=0;entryDy=0;entryPerimeter=0;" parent="WIyWlLk6GJQsqaUBKTNV-1" source="ZTby4JIDLadT5wWPWZZM-733" target="LWb54_HK2BMXyp2uk4u7-3" edge="1">
          <mxGeometry width="50" height="50" relative="1" as="geometry">
            <mxPoint x="-940" y="330" as="sourcePoint" />
            <mxPoint x="-890" y="280" as="targetPoint" />
          </mxGeometry>
        </mxCell>
        <mxCell id="LWb54_HK2BMXyp2uk4u7-14" value="" style="endArrow=none;html=1;rounded=0;exitX=0.845;exitY=0;exitDx=0;exitDy=0;exitPerimeter=0;entryX=0.49;entryY=-0.007;entryDx=0;entryDy=0;entryPerimeter=0;" parent="WIyWlLk6GJQsqaUBKTNV-1" source="ZTby4JIDLadT5wWPWZZM-733" target="LWb54_HK2BMXyp2uk4u7-7" edge="1">
          <mxGeometry width="50" height="50" relative="1" as="geometry">
            <mxPoint x="-760" y="410" as="sourcePoint" />
            <mxPoint x="-650" y="450" as="targetPoint" />
            <Array as="points">
              <mxPoint x="-760" y="450" />
              <mxPoint x="-590" y="450" />
            </Array>
          </mxGeometry>
        </mxCell>
        <mxCell id="LWb54_HK2BMXyp2uk4u7-15" value="" style="endArrow=open;endFill=1;endSize=12;html=1;rounded=0;exitX=0.499;exitY=1.015;exitDx=0;exitDy=0;exitPerimeter=0;" parent="WIyWlLk6GJQsqaUBKTNV-1" source="LWb54_HK2BMXyp2uk4u7-7" target="ZTby4JIDLadT5wWPWZZM-734" edge="1">
          <mxGeometry width="160" relative="1" as="geometry">
            <mxPoint x="-705" y="460" as="sourcePoint" />
            <mxPoint x="-650" y="490" as="targetPoint" />
            <Array as="points">
              <mxPoint x="-590" y="540" />
            </Array>
          </mxGeometry>
        </mxCell>
        <mxCell id="LWb54_HK2BMXyp2uk4u7-16" value="&lt;span style=&quot;text-align: left; font-weight: normal;&quot;&gt;&lt;font style=&quot;font-size: 9px;&quot;&gt;- listOfCharacters: List&amp;lt;Character&amp;gt;&lt;/font&gt;&lt;/span&gt;" style="text;align=center;fontStyle=1;verticalAlign=middle;spacingLeft=3;spacingRight=3;strokeColor=none;rotatable=0;points=[[0,0.5],[1,0.5]];portConstraint=eastwest;html=1;" parent="WIyWlLk6GJQsqaUBKTNV-1" vertex="1">
          <mxGeometry x="-917" y="840" width="80" height="26" as="geometry" />
        </mxCell>
        <mxCell id="LWb54_HK2BMXyp2uk4u7-18" value="" style="endArrow=open;endFill=1;endSize=12;html=1;rounded=0;entryX=0.469;entryY=0.002;entryDx=0;entryDy=0;entryPerimeter=0;exitX=-0.011;exitY=0.196;exitDx=0;exitDy=0;exitPerimeter=0;" parent="WIyWlLk6GJQsqaUBKTNV-1" source="LWb54_HK2BMXyp2uk4u7-22" target="ZTby4JIDLadT5wWPWZZM-708" edge="1">
          <mxGeometry width="160" relative="1" as="geometry">
            <mxPoint x="-880" y="860" as="sourcePoint" />
            <mxPoint x="-810" y="900" as="targetPoint" />
          </mxGeometry>
        </mxCell>
        <mxCell id="LWb54_HK2BMXyp2uk4u7-19" value="&lt;span style=&quot;font-weight: normal;&quot;&gt;&lt;font style=&quot;font-size: 8px;&quot;&gt;1&lt;/font&gt;&lt;/span&gt;" style="text;align=center;fontStyle=1;verticalAlign=middle;spacingLeft=3;spacingRight=3;strokeColor=none;rotatable=0;points=[[0,0.5],[1,0.5]];portConstraint=eastwest;html=1;" parent="WIyWlLk6GJQsqaUBKTNV-1" vertex="1">
          <mxGeometry x="-902" y="438" width="20" height="20" as="geometry" />
        </mxCell>
        <mxCell id="LWb54_HK2BMXyp2uk4u7-20" value="&lt;span style=&quot;font-weight: normal;&quot;&gt;&lt;font style=&quot;font-size: 9px;&quot;&gt;0..maxCharacter&lt;/font&gt;&lt;/span&gt;" style="text;align=center;fontStyle=1;verticalAlign=middle;spacingLeft=3;spacingRight=3;strokeColor=none;rotatable=0;points=[[0,0.5],[1,0.5]];portConstraint=eastwest;html=1;" parent="WIyWlLk6GJQsqaUBKTNV-1" vertex="1">
          <mxGeometry x="-847" y="178" width="20" height="20" as="geometry" />
        </mxCell>
        <mxCell id="LWb54_HK2BMXyp2uk4u7-22" value="&lt;span style=&quot;font-weight: normal;&quot;&gt;&lt;font style=&quot;font-size: 9px;&quot;&gt;1&lt;/font&gt;&lt;/span&gt;" style="text;align=center;fontStyle=1;verticalAlign=middle;spacingLeft=3;spacingRight=3;strokeColor=none;rotatable=0;points=[[0,0.5],[1,0.5]];portConstraint=eastwest;html=1;" parent="WIyWlLk6GJQsqaUBKTNV-1" vertex="1">
          <mxGeometry x="-880" y="836" width="20" height="20" as="geometry" />
        </mxCell>
        <mxCell id="LWb54_HK2BMXyp2uk4u7-23" value="&lt;span style=&quot;font-weight: normal;&quot;&gt;&lt;font style=&quot;font-size: 9px;&quot;&gt;0..maxCharacter&lt;/font&gt;&lt;/span&gt;" style="text;align=center;fontStyle=1;verticalAlign=middle;spacingLeft=3;spacingRight=3;strokeColor=none;rotatable=0;points=[[0,0.5],[1,0.5]];portConstraint=eastwest;html=1;" parent="WIyWlLk6GJQsqaUBKTNV-1" vertex="1">
          <mxGeometry x="-847" y="856" width="20" height="20" as="geometry" />
        </mxCell>
        <mxCell id="LWb54_HK2BMXyp2uk4u7-25" value="&lt;span style=&quot;font-weight: normal;&quot;&gt;&lt;font style=&quot;font-size: 9px;&quot;&gt;1..*&lt;/font&gt;&lt;/span&gt;" style="text;align=center;fontStyle=1;verticalAlign=middle;spacingLeft=3;spacingRight=3;strokeColor=none;rotatable=0;points=[[0,0.5],[1,0.5]];portConstraint=eastwest;html=1;" parent="WIyWlLk6GJQsqaUBKTNV-1" vertex="1">
          <mxGeometry x="-715" y="458" width="20" height="20" as="geometry" />
        </mxCell>
        <mxCell id="LWb54_HK2BMXyp2uk4u7-27" value="" style="endArrow=diamondThin;endFill=1;endSize=24;html=1;rounded=0;exitX=-0.001;exitY=0.467;exitDx=0;exitDy=0;exitPerimeter=0;entryX=0.569;entryY=0;entryDx=0;entryDy=0;entryPerimeter=0;" parent="WIyWlLk6GJQsqaUBKTNV-1" source="ZTby4JIDLadT5wWPWZZM-244" target="ZTby4JIDLadT5wWPWZZM-733" edge="1">
          <mxGeometry width="160" relative="1" as="geometry">
            <mxPoint x="-840" y="310" as="sourcePoint" />
            <mxPoint x="-840" y="420" as="targetPoint" />
            <Array as="points">
              <mxPoint x="-840" y="373" />
            </Array>
          </mxGeometry>
        </mxCell>
        <mxCell id="LWb54_HK2BMXyp2uk4u7-30" value="&lt;span style=&quot;font-weight: normal;&quot;&gt;&lt;font style=&quot;font-size: 9px;&quot;&gt;1&lt;/font&gt;&lt;/span&gt;" style="text;align=center;fontStyle=1;verticalAlign=middle;spacingLeft=3;spacingRight=3;strokeColor=none;rotatable=0;points=[[0,0.5],[1,0.5]];portConstraint=eastwest;html=1;" parent="WIyWlLk6GJQsqaUBKTNV-1" vertex="1">
          <mxGeometry x="-837" y="438" width="20" height="20" as="geometry" />
        </mxCell>
        <mxCell id="LWb54_HK2BMXyp2uk4u7-31" value="&lt;span style=&quot;font-weight: normal;&quot;&gt;&lt;font style=&quot;font-size: 9px;&quot;&gt;0..1&lt;/font&gt;&lt;/span&gt;" style="text;align=center;fontStyle=1;verticalAlign=middle;spacingLeft=3;spacingRight=3;strokeColor=none;rotatable=0;points=[[0,0.5],[1,0.5]];portConstraint=eastwest;html=1;" parent="WIyWlLk6GJQsqaUBKTNV-1" vertex="1">
          <mxGeometry x="-817" y="350" width="20" height="20" as="geometry" />
        </mxCell>
        <mxCell id="LWb54_HK2BMXyp2uk4u7-32" value="" style="endArrow=open;endFill=1;endSize=12;html=1;rounded=0;entryX=0.5;entryY=0;entryDx=0;entryDy=0;exitX=0;exitY=0.5;exitDx=0;exitDy=0;" parent="WIyWlLk6GJQsqaUBKTNV-1" source="LWb54_HK2BMXyp2uk4u7-33" target="ZTby4JIDLadT5wWPWZZM-5" edge="1">
          <mxGeometry width="160" relative="1" as="geometry">
            <mxPoint x="-1480" y="750" as="sourcePoint" />
            <mxPoint x="-1480" y="-290" as="targetPoint" />
            <Array as="points">
              <mxPoint x="-1410" y="-10" />
              <mxPoint x="-850" y="-10" />
            </Array>
          </mxGeometry>
        </mxCell>
        <mxCell id="LWb54_HK2BMXyp2uk4u7-33" value="&lt;span style=&quot;color: rgb(0, 0, 0); font-family: Helvetica; font-style: normal; font-variant-ligatures: normal; font-variant-caps: normal; font-weight: 400; letter-spacing: normal; orphans: 2; text-indent: 0px; text-transform: none; widows: 2; word-spacing: 0px; -webkit-text-stroke-width: 0px; white-space: normal; background-color: rgb(251, 251, 251); text-decoration-thickness: initial; text-decoration-style: initial; text-decoration-color: initial; float: none; display: inline !important;&quot;&gt;&lt;font style=&quot;font-size: 9px;&quot;&gt;- inventory: List&amp;lt;Item&amp;gt;&lt;/font&gt;&lt;/span&gt;" style="text;whiteSpace=wrap;html=1;align=center;rotation=90;" parent="WIyWlLk6GJQsqaUBKTNV-1" vertex="1">
          <mxGeometry x="-1470" y="725" width="100" height="30" as="geometry" />
        </mxCell>
        <mxCell id="LWb54_HK2BMXyp2uk4u7-34" value="" style="endArrow=none;html=1;rounded=0;entryX=1;entryY=0.5;entryDx=0;entryDy=0;exitX=-0.004;exitY=0.717;exitDx=0;exitDy=0;exitPerimeter=0;" parent="WIyWlLk6GJQsqaUBKTNV-1" source="ZTby4JIDLadT5wWPWZZM-713" target="LWb54_HK2BMXyp2uk4u7-33" edge="1">
          <mxGeometry width="50" height="50" relative="1" as="geometry">
            <mxPoint x="-1480" y="960" as="sourcePoint" />
            <mxPoint x="-1500" y="710" as="targetPoint" />
            <Array as="points">
              <mxPoint x="-1420" y="1055" />
            </Array>
          </mxGeometry>
        </mxCell>
        <mxCell id="LWb54_HK2BMXyp2uk4u7-35" value="&lt;span style=&quot;font-weight: normal;&quot;&gt;&lt;font style=&quot;font-size: 9px;&quot;&gt;1&lt;/font&gt;&lt;/span&gt;" style="text;align=center;fontStyle=1;verticalAlign=middle;spacingLeft=3;spacingRight=3;strokeColor=none;rotatable=0;points=[[0,0.5],[1,0.5]];portConstraint=eastwest;html=1;" parent="WIyWlLk6GJQsqaUBKTNV-1" vertex="1">
          <mxGeometry x="-1340" y="1030" width="20" height="20" as="geometry" />
        </mxCell>
        <mxCell id="LWb54_HK2BMXyp2uk4u7-36" value="&lt;span style=&quot;font-weight: normal;&quot;&gt;&lt;font style=&quot;font-size: 9px;&quot;&gt;0..inventorySize&lt;/font&gt;&lt;/span&gt;" style="text;align=center;fontStyle=1;verticalAlign=middle;spacingLeft=3;spacingRight=3;strokeColor=none;rotatable=0;points=[[0,0.5],[1,0.5]];portConstraint=eastwest;html=1;" parent="WIyWlLk6GJQsqaUBKTNV-1" vertex="1">
          <mxGeometry x="-817" y="-20" width="20" height="20" as="geometry" />
        </mxCell>
        <mxCell id="LWb54_HK2BMXyp2uk4u7-39" value="&lt;span style=&quot;font-weight: normal;&quot;&gt;&lt;font style=&quot;font-size: 9px;&quot;&gt;1&lt;/font&gt;&lt;/span&gt;" style="text;align=center;fontStyle=1;verticalAlign=middle;spacingLeft=3;spacingRight=3;strokeColor=none;rotatable=0;points=[[0,0.5],[1,0.5]];portConstraint=eastwest;html=1;" parent="WIyWlLk6GJQsqaUBKTNV-1" vertex="1">
          <mxGeometry x="-590" y="1075" width="40" height="20" as="geometry" />
        </mxCell>
        <mxCell id="LWb54_HK2BMXyp2uk4u7-40" value="&lt;span style=&quot;font-weight: 400;&quot;&gt;&lt;font style=&quot;font-size: 9px;&quot;&gt;5..11&lt;/font&gt;&lt;/span&gt;" style="text;align=center;fontStyle=1;verticalAlign=middle;spacingLeft=3;spacingRight=3;strokeColor=none;rotatable=0;points=[[0,0.5],[1,0.5]];portConstraint=eastwest;html=1;" parent="WIyWlLk6GJQsqaUBKTNV-1" vertex="1">
          <mxGeometry x="-705" y="890" width="40" height="30" as="geometry" />
        </mxCell>
        <mxCell id="LWb54_HK2BMXyp2uk4u7-43" value="" style="endArrow=open;endFill=1;endSize=12;html=1;rounded=0;entryX=1.001;entryY=0.999;entryDx=0;entryDy=0;entryPerimeter=0;exitX=1;exitY=0;exitDx=0;exitDy=0;" parent="WIyWlLk6GJQsqaUBKTNV-1" source="ZTby4JIDLadT5wWPWZZM-724" target="ZTby4JIDLadT5wWPWZZM-736" edge="1">
          <mxGeometry width="160" relative="1" as="geometry">
            <mxPoint x="-380" y="1150" as="sourcePoint" />
            <mxPoint x="-680" y="770" as="targetPoint" />
            <Array as="points">
              <mxPoint x="-410" y="840" />
            </Array>
          </mxGeometry>
        </mxCell>
        <mxCell id="LWb54_HK2BMXyp2uk4u7-52" value="" style="endArrow=block;endSize=16;endFill=0;html=1;rounded=0;exitX=-0.003;exitY=0.167;exitDx=0;exitDy=0;exitPerimeter=0;entryX=0.994;entryY=0.68;entryDx=0;entryDy=0;entryPerimeter=0;" parent="WIyWlLk6GJQsqaUBKTNV-1" source="ZTby4JIDLadT5wWPWZZM-253" target="ZTby4JIDLadT5wWPWZZM-8" edge="1">
          <mxGeometry width="160" relative="1" as="geometry">
            <mxPoint x="-940" y="50" as="sourcePoint" />
            <mxPoint x="-780" y="50" as="targetPoint" />
            <Array as="points">
              <mxPoint x="-530" y="310" />
              <mxPoint x="-550" y="180" />
            </Array>
          </mxGeometry>
        </mxCell>
        <mxCell id="LQIZmKu48MfbnZAifibu-5" value="&lt;font style=&quot;font-size: 11px;&quot;&gt;0..5&lt;/font&gt;" style="text;html=1;align=center;verticalAlign=middle;resizable=0;points=[];autosize=1;strokeColor=none;fillColor=none;" parent="WIyWlLk6GJQsqaUBKTNV-1" vertex="1">
          <mxGeometry x="-835" y="270" width="40" height="30" as="geometry" />
        </mxCell>
        <mxCell id="jxGl7hStziKppLYoiM49-1" value="" style="endArrow=open;endFill=1;endSize=12;html=1;rounded=0;entryX=-0.01;entryY=0.792;entryDx=0;entryDy=0;entryPerimeter=0;" parent="WIyWlLk6GJQsqaUBKTNV-1" target="ZTby4JIDLadT5wWPWZZM-715" edge="1">
          <mxGeometry width="160" relative="1" as="geometry">
            <mxPoint x="-1440" y="1340" as="sourcePoint" />
            <mxPoint x="-1340" y="1358.89" as="targetPoint" />
          </mxGeometry>
        </mxCell>
        <mxCell id="jxGl7hStziKppLYoiM49-2" value="" style="endArrow=open;endFill=1;endSize=12;html=1;rounded=0;entryX=0.898;entryY=-0.01;entryDx=0;entryDy=0;entryPerimeter=0;" parent="WIyWlLk6GJQsqaUBKTNV-1" target="ZTby4JIDLadT5wWPWZZM-5" edge="1">
          <mxGeometry width="160" relative="1" as="geometry">
            <mxPoint x="-1440" y="1340" as="sourcePoint" />
            <mxPoint x="-1520" y="-190" as="targetPoint" />
            <Array as="points">
              <mxPoint x="-1440" y="-20" />
              <mxPoint x="-747" y="-20" />
            </Array>
          </mxGeometry>
        </mxCell>
        <mxCell id="jxGl7hStziKppLYoiM49-6" value="" style="endArrow=open;endFill=1;endSize=12;html=1;rounded=0;entryX=0.843;entryY=1.002;entryDx=0;entryDy=0;entryPerimeter=0;" parent="WIyWlLk6GJQsqaUBKTNV-1" target="ZTby4JIDLadT5wWPWZZM-736" edge="1">
          <mxGeometry width="160" relative="1" as="geometry">
            <mxPoint x="-760" y="840" as="sourcePoint" />
            <mxPoint x="-750" y="898" as="targetPoint" />
          </mxGeometry>
        </mxCell>
        <mxCell id="jxGl7hStziKppLYoiM49-7" value="&lt;font style=&quot;font-size: 9px;&quot;&gt;0..1&lt;/font&gt;" style="text;html=1;align=center;verticalAlign=middle;resizable=0;points=[];autosize=1;strokeColor=none;fillColor=none;" parent="WIyWlLk6GJQsqaUBKTNV-1" vertex="1">
          <mxGeometry x="-580" y="330" width="40" height="30" as="geometry" />
        </mxCell>
        <mxCell id="83T9RoNi5spyUP6bzhTO-0" value="" style="endArrow=none;html=1;rounded=0;exitX=0;exitY=0;exitDx=0;exitDy=0;entryX=0.455;entryY=1.021;entryDx=0;entryDy=0;entryPerimeter=0;" parent="WIyWlLk6GJQsqaUBKTNV-1" source="ZTby4JIDLadT5wWPWZZM-712" target="akZmPor6qZCUniB-4no1-6" edge="1">
          <mxGeometry width="50" height="50" relative="1" as="geometry">
            <mxPoint x="-1350" y="1000" as="sourcePoint" />
            <mxPoint x="-1280" y="500" as="targetPoint" />
            <Array as="points">
              <mxPoint x="-1310" y="570" />
              <mxPoint x="-1050" y="570" />
            </Array>
          </mxGeometry>
        </mxCell>
        <mxCell id="83T9RoNi5spyUP6bzhTO-1" value="tvsz" style="text;html=1;align=center;verticalAlign=middle;resizable=0;points=[];autosize=1;strokeColor=none;fillColor=none;" parent="WIyWlLk6GJQsqaUBKTNV-1" vertex="1">
          <mxGeometry x="-1050" y="360" width="40" height="30" as="geometry" />
        </mxCell>
        <mxCell id="83T9RoNi5spyUP6bzhTO-2" value="0..1" style="text;html=1;align=center;verticalAlign=middle;resizable=0;points=[];autosize=1;strokeColor=none;fillColor=none;" parent="WIyWlLk6GJQsqaUBKTNV-1" vertex="1">
          <mxGeometry x="-1090" y="360" width="40" height="30" as="geometry" />
        </mxCell>
        <mxCell id="83T9RoNi5spyUP6bzhTO-3" value="" style="endArrow=none;html=1;rounded=0;exitX=0.996;exitY=0.046;exitDx=0;exitDy=0;exitPerimeter=0;entryX=1.007;entryY=0.037;entryDx=0;entryDy=0;entryPerimeter=0;" parent="WIyWlLk6GJQsqaUBKTNV-1" source="ZTby4JIDLadT5wWPWZZM-736" target="ZTby4JIDLadT5wWPWZZM-260" edge="1">
          <mxGeometry width="50" height="50" relative="1" as="geometry">
            <mxPoint x="-520" y="540" as="sourcePoint" />
            <mxPoint x="-270" y="50" as="targetPoint" />
            <Array as="points">
              <mxPoint x="-260" y="560" />
              <mxPoint x="-260" y="310" />
              <mxPoint x="-260" y="64" />
            </Array>
          </mxGeometry>
        </mxCell>
        <mxCell id="83T9RoNi5spyUP6bzhTO-4" value="wetRag" style="text;html=1;align=center;verticalAlign=middle;resizable=0;points=[];autosize=1;strokeColor=none;fillColor=none;" parent="WIyWlLk6GJQsqaUBKTNV-1" vertex="1">
          <mxGeometry x="-300" y="40" width="60" height="30" as="geometry" />
        </mxCell>
        <mxCell id="83T9RoNi5spyUP6bzhTO-5" value="0..*" style="text;html=1;align=center;verticalAlign=middle;resizable=0;points=[];autosize=1;strokeColor=none;fillColor=none;" parent="WIyWlLk6GJQsqaUBKTNV-1" vertex="1">
          <mxGeometry x="-300" y="58" width="40" height="30" as="geometry" />
        </mxCell>
        <mxCell id="9M3hmUToW96ipyduFlzJ-0" value="AirFreshener" style="swimlane;fontStyle=1;align=center;verticalAlign=top;childLayout=stackLayout;horizontal=1;startSize=26;horizontalStack=0;resizeParent=1;resizeParentMax=0;resizeLast=0;collapsible=1;marginBottom=0;whiteSpace=wrap;html=1;" parent="WIyWlLk6GJQsqaUBKTNV-1" vertex="1">
          <mxGeometry x="-680" y="-130" width="220" height="120" as="geometry" />
        </mxCell>
        <mxCell id="9M3hmUToW96ipyduFlzJ-2" value="" style="line;strokeWidth=1;fillColor=none;align=left;verticalAlign=middle;spacingTop=-1;spacingLeft=3;spacingRight=3;rotatable=0;labelPosition=right;points=[];portConstraint=eastwest;strokeColor=inherit;" parent="9M3hmUToW96ipyduFlzJ-0" vertex="1">
          <mxGeometry y="26" width="220" height="8" as="geometry" />
        </mxCell>
        <mxCell id="9M3hmUToW96ipyduFlzJ-3" value="&lt;div&gt;+ use(Student): void&lt;/div&gt;&lt;div&gt;&lt;span style=&quot;background-color: initial;&quot;&gt;+&amp;nbsp;&lt;/span&gt;&lt;span style=&quot;background-color: initial;&quot;&gt;canInstructorPickUp(): boolean&lt;/span&gt;&lt;br&gt;&lt;/div&gt;&lt;div&gt;+ onPickedUp(Student): void&lt;br style=&quot;border-color: var(--border-color);&quot;&gt;+ onRoundStart(Student): void&lt;br style=&quot;border-color: var(--border-color);&quot;&gt;+ onAttacked(Student, Instructor): bool&lt;/div&gt;" style="text;strokeColor=none;fillColor=none;align=left;verticalAlign=top;spacingLeft=4;spacingRight=4;overflow=hidden;rotatable=0;points=[[0,0.5],[1,0.5]];portConstraint=eastwest;whiteSpace=wrap;html=1;" parent="9M3hmUToW96ipyduFlzJ-0" vertex="1">
          <mxGeometry y="34" width="220" height="86" as="geometry" />
        </mxCell>
        <mxCell id="9M3hmUToW96ipyduFlzJ-4" value="" style="endArrow=block;endSize=16;endFill=0;html=1;rounded=0;entryX=0.964;entryY=-0.002;entryDx=0;entryDy=0;entryPerimeter=0;exitX=0;exitY=0.5;exitDx=0;exitDy=0;" parent="WIyWlLk6GJQsqaUBKTNV-1" source="9M3hmUToW96ipyduFlzJ-3" target="ZTby4JIDLadT5wWPWZZM-5" edge="1">
          <mxGeometry x="0.0023" width="160" relative="1" as="geometry">
            <mxPoint x="-870" y="-90" as="sourcePoint" />
            <mxPoint x="-710" y="-90" as="targetPoint" />
            <mxPoint as="offset" />
          </mxGeometry>
        </mxCell>
        <mxCell id="9M3hmUToW96ipyduFlzJ-5" value="Cleaner" style="swimlane;fontStyle=1;align=center;verticalAlign=top;childLayout=stackLayout;horizontal=1;startSize=26;horizontalStack=0;resizeParent=1;resizeParentMax=0;resizeLast=0;collapsible=1;marginBottom=0;whiteSpace=wrap;html=1;" parent="WIyWlLk6GJQsqaUBKTNV-1" vertex="1">
          <mxGeometry x="-1285" y="740" width="240" height="150" as="geometry" />
        </mxCell>
        <mxCell id="9M3hmUToW96ipyduFlzJ-6" value="" style="line;strokeWidth=1;fillColor=none;align=left;verticalAlign=middle;spacingTop=-1;spacingLeft=3;spacingRight=3;rotatable=0;labelPosition=right;points=[];portConstraint=eastwest;strokeColor=inherit;" parent="9M3hmUToW96ipyduFlzJ-5" vertex="1">
          <mxGeometry y="26" width="240" height="8" as="geometry" />
        </mxCell>
        <mxCell id="9M3hmUToW96ipyduFlzJ-7" value="+ move(Room, Room): void&lt;br&gt;+ action(): void&lt;br&gt;+ meetStudent(Student): void&lt;br&gt;+ meetInstructor(Instructor): void&lt;div&gt;+ startRound(int): void&lt;/div&gt;&lt;div&gt;+ meetCleaner(Cleaner): void&lt;br&gt;&lt;/div&gt;&lt;div&gt;+ pickUpItem(Item): void&lt;br&gt;&lt;/div&gt;" style="text;strokeColor=none;fillColor=none;align=left;verticalAlign=top;spacingLeft=4;spacingRight=4;overflow=hidden;rotatable=0;points=[[0,0.5],[1,0.5]];portConstraint=eastwest;whiteSpace=wrap;html=1;" parent="9M3hmUToW96ipyduFlzJ-5" vertex="1">
          <mxGeometry y="34" width="240" height="116" as="geometry" />
        </mxCell>
        <mxCell id="lBL7uSdB6OSm5rdOuHs9-0" value="" style="endArrow=block;endSize=16;endFill=0;html=1;rounded=0;exitX=1;exitY=0.5;exitDx=0;exitDy=0;entryX=0.25;entryY=0;entryDx=0;entryDy=0;" parent="WIyWlLk6GJQsqaUBKTNV-1" source="9M3hmUToW96ipyduFlzJ-7" target="ZTby4JIDLadT5wWPWZZM-708" edge="1">
          <mxGeometry width="160" relative="1" as="geometry">
            <mxPoint x="-1040" y="849" as="sourcePoint" />
            <mxPoint x="-895" y="800" as="targetPoint" />
            <Array as="points" />
          </mxGeometry>
        </mxCell>
        <mxCell id="mcBrEfWgZ10Lk5Ddw_8H-0" value="StickyRoom" style="swimlane;fontStyle=1;align=center;verticalAlign=top;childLayout=stackLayout;horizontal=1;startSize=26;horizontalStack=0;resizeParent=1;resizeParentMax=0;resizeLast=0;collapsible=1;marginBottom=0;whiteSpace=wrap;html=1;" parent="WIyWlLk6GJQsqaUBKTNV-1" vertex="1">
          <mxGeometry x="-701.5" y="600" width="190" height="80" as="geometry" />
        </mxCell>
        <mxCell id="mcBrEfWgZ10Lk5Ddw_8H-1" value="" style="line;strokeWidth=1;fillColor=none;align=left;verticalAlign=middle;spacingTop=-1;spacingLeft=3;spacingRight=3;rotatable=0;labelPosition=right;points=[];portConstraint=eastwest;strokeColor=inherit;" parent="mcBrEfWgZ10Lk5Ddw_8H-0" vertex="1">
          <mxGeometry y="26" width="190" height="8" as="geometry" />
        </mxCell>
        <mxCell id="mcBrEfWgZ10Lk5Ddw_8H-2" value="&lt;div&gt;&lt;span style=&quot;background-color: initial;&quot;&gt;+ onEntered(Character): void&lt;/span&gt;&lt;br&gt;&lt;/div&gt;&lt;div&gt;&lt;span style=&quot;background-color: initial;&quot;&gt;+ PickUp(Item, Student): void&lt;/span&gt;&lt;/div&gt;" style="text;strokeColor=none;fillColor=none;align=left;verticalAlign=top;spacingLeft=4;spacingRight=4;overflow=hidden;rotatable=0;points=[[0,0.5],[1,0.5]];portConstraint=eastwest;whiteSpace=wrap;html=1;" parent="mcBrEfWgZ10Lk5Ddw_8H-0" vertex="1">
          <mxGeometry y="34" width="190" height="46" as="geometry" />
        </mxCell>
        <mxCell id="mcBrEfWgZ10Lk5Ddw_8H-3" value="" style="endArrow=block;endSize=16;endFill=0;html=1;rounded=0;exitX=0.483;exitY=-0.006;exitDx=0;exitDy=0;entryX=1.001;entryY=0.485;entryDx=0;entryDy=0;entryPerimeter=0;exitPerimeter=0;" parent="WIyWlLk6GJQsqaUBKTNV-1" source="mcBrEfWgZ10Lk5Ddw_8H-0" edge="1">
          <mxGeometry width="160" relative="1" as="geometry">
            <mxPoint x="-800" y="460" as="sourcePoint" />
            <mxPoint x="-715" y="580" as="targetPoint" />
            <Array as="points">
              <mxPoint x="-610" y="580" />
            </Array>
          </mxGeometry>
        </mxCell>
        <mxCell id="mcBrEfWgZ10Lk5Ddw_8H-4" value="FakeSlideRule" style="swimlane;fontStyle=1;align=center;verticalAlign=top;childLayout=stackLayout;horizontal=1;startSize=26;horizontalStack=0;resizeParent=1;resizeParentMax=0;resizeLast=0;collapsible=1;marginBottom=0;whiteSpace=wrap;html=1;" parent="WIyWlLk6GJQsqaUBKTNV-1" vertex="1">
          <mxGeometry x="-1400" y="-150" width="220" height="120" as="geometry" />
        </mxCell>
        <mxCell id="mcBrEfWgZ10Lk5Ddw_8H-5" value="" style="line;strokeWidth=1;fillColor=none;align=left;verticalAlign=middle;spacingTop=-1;spacingLeft=3;spacingRight=3;rotatable=0;labelPosition=right;points=[];portConstraint=eastwest;strokeColor=inherit;" parent="mcBrEfWgZ10Lk5Ddw_8H-4" vertex="1">
          <mxGeometry y="26" width="220" height="8" as="geometry" />
        </mxCell>
        <mxCell id="mcBrEfWgZ10Lk5Ddw_8H-6" value="+ use(Student): void&lt;br&gt;&lt;div&gt;+&amp;nbsp;&lt;span style=&quot;background-color: initial;&quot;&gt;canInstructorPickUp(): boolean&lt;/span&gt;&lt;/div&gt;&lt;div&gt;+ onPickedUp(Student): void&lt;br style=&quot;border-color: var(--border-color);&quot;&gt;+ onRoundStart(Student): void&lt;br style=&quot;border-color: var(--border-color);&quot;&gt;+ onAttacked(Student, Instructor): bool&lt;span style=&quot;background-color: initial;&quot;&gt;&lt;br&gt;&lt;/span&gt;&lt;/div&gt;" style="text;strokeColor=none;fillColor=none;align=left;verticalAlign=top;spacingLeft=4;spacingRight=4;overflow=hidden;rotatable=0;points=[[0,0.5],[1,0.5]];portConstraint=eastwest;whiteSpace=wrap;html=1;" parent="mcBrEfWgZ10Lk5Ddw_8H-4" vertex="1">
          <mxGeometry y="34" width="220" height="86" as="geometry" />
        </mxCell>
        <mxCell id="mcBrEfWgZ10Lk5Ddw_8H-7" value="" style="endArrow=block;endSize=16;endFill=0;html=1;rounded=0;exitX=0.538;exitY=0.989;exitDx=0;exitDy=0;exitPerimeter=0;" parent="WIyWlLk6GJQsqaUBKTNV-1" source="mcBrEfWgZ10Lk5Ddw_8H-6" target="ZTby4JIDLadT5wWPWZZM-269" edge="1">
          <mxGeometry width="160" relative="1" as="geometry">
            <mxPoint x="-1160" y="-80" as="sourcePoint" />
            <mxPoint x="-1000" y="-80" as="targetPoint" />
          </mxGeometry>
        </mxCell>
        <mxCell id="mcBrEfWgZ10Lk5Ddw_8H-8" value="FakeFFP2" style="swimlane;fontStyle=1;align=center;verticalAlign=top;childLayout=stackLayout;horizontal=1;startSize=26;horizontalStack=0;resizeParent=1;resizeParentMax=0;resizeLast=0;collapsible=1;marginBottom=0;whiteSpace=wrap;html=1;" parent="WIyWlLk6GJQsqaUBKTNV-1" vertex="1">
          <mxGeometry x="-1640" y="410" width="190" height="140" as="geometry" />
        </mxCell>
        <mxCell id="mcBrEfWgZ10Lk5Ddw_8H-9" value="- durability: int" style="text;strokeColor=none;fillColor=none;align=left;verticalAlign=top;spacingLeft=4;spacingRight=4;overflow=hidden;rotatable=0;points=[[0,0.5],[1,0.5]];portConstraint=eastwest;whiteSpace=wrap;html=1;" parent="mcBrEfWgZ10Lk5Ddw_8H-8" vertex="1">
          <mxGeometry y="26" width="190" height="26" as="geometry" />
        </mxCell>
        <mxCell id="mcBrEfWgZ10Lk5Ddw_8H-10" value="" style="line;strokeWidth=1;fillColor=none;align=left;verticalAlign=middle;spacingTop=-1;spacingLeft=3;spacingRight=3;rotatable=0;labelPosition=right;points=[];portConstraint=eastwest;strokeColor=inherit;" parent="mcBrEfWgZ10Lk5Ddw_8H-8" vertex="1">
          <mxGeometry y="52" width="190" height="8" as="geometry" />
        </mxCell>
        <mxCell id="mcBrEfWgZ10Lk5Ddw_8H-11" value="+ use(Student): void&lt;br&gt;&lt;div&gt;+ canInstructorPickUp(): boolean&lt;br&gt;&lt;/div&gt;&lt;div&gt;+ onPickedUp(Student): void&lt;br style=&quot;border-color: var(--border-color);&quot;&gt;+ onRoundStart(Student): void&lt;br style=&quot;border-color: var(--border-color);&quot;&gt;+ onAttacked(Student): void&lt;br&gt;&lt;/div&gt;" style="text;strokeColor=none;fillColor=none;align=left;verticalAlign=top;spacingLeft=4;spacingRight=4;overflow=hidden;rotatable=0;points=[[0,0.5],[1,0.5]];portConstraint=eastwest;whiteSpace=wrap;html=1;" parent="mcBrEfWgZ10Lk5Ddw_8H-8" vertex="1">
          <mxGeometry y="60" width="190" height="80" as="geometry" />
        </mxCell>
        <mxCell id="mcBrEfWgZ10Lk5Ddw_8H-12" value="" style="endArrow=block;endSize=16;endFill=0;html=1;rounded=0;entryX=0;entryY=0.5;entryDx=0;entryDy=0;exitX=1;exitY=0.5;exitDx=0;exitDy=0;" parent="WIyWlLk6GJQsqaUBKTNV-1" source="mcBrEfWgZ10Lk5Ddw_8H-9" target="ZTby4JIDLadT5wWPWZZM-262" edge="1">
          <mxGeometry x="0.0027" width="160" relative="1" as="geometry">
            <mxPoint x="-1580" y="340" as="sourcePoint" />
            <mxPoint x="-1420" y="340" as="targetPoint" />
            <mxPoint as="offset" />
          </mxGeometry>
        </mxCell>
        <mxCell id="mcBrEfWgZ10Lk5Ddw_8H-13" value="FakeTVSZ" style="swimlane;fontStyle=1;align=center;verticalAlign=top;childLayout=stackLayout;horizontal=1;startSize=26;horizontalStack=0;resizeParent=1;resizeParentMax=0;resizeLast=0;collapsible=1;marginBottom=0;whiteSpace=wrap;html=1;" parent="WIyWlLk6GJQsqaUBKTNV-1" vertex="1">
          <mxGeometry x="-1670" y="210" width="220" height="170" as="geometry" />
        </mxCell>
        <mxCell id="mcBrEfWgZ10Lk5Ddw_8H-14" value="- remainingProtection: int" style="text;strokeColor=none;fillColor=none;align=left;verticalAlign=top;spacingLeft=4;spacingRight=4;overflow=hidden;rotatable=0;points=[[0,0.5],[1,0.5]];portConstraint=eastwest;whiteSpace=wrap;html=1;" parent="mcBrEfWgZ10Lk5Ddw_8H-13" vertex="1">
          <mxGeometry y="26" width="220" height="26" as="geometry" />
        </mxCell>
        <mxCell id="mcBrEfWgZ10Lk5Ddw_8H-15" value="" style="line;strokeWidth=1;fillColor=none;align=left;verticalAlign=middle;spacingTop=-1;spacingLeft=3;spacingRight=3;rotatable=0;labelPosition=right;points=[];portConstraint=eastwest;strokeColor=inherit;" parent="mcBrEfWgZ10Lk5Ddw_8H-13" vertex="1">
          <mxGeometry y="52" width="220" height="8" as="geometry" />
        </mxCell>
        <mxCell id="mcBrEfWgZ10Lk5Ddw_8H-16" value="+ use(Student): void&lt;div&gt;&lt;span style=&quot;background-color: initial;&quot;&gt;+ canInstructorPickUp(): boolean&lt;/span&gt;&lt;/div&gt;&lt;div&gt;+ onPickedUp(Student): void&lt;br style=&quot;border-color: var(--border-color);&quot;&gt;+ onRoundStart(Student): void&lt;br style=&quot;border-color: var(--border-color);&quot;&gt;+ onAttacked(Student, Instructor): bool&lt;span style=&quot;background-color: initial;&quot;&gt;&lt;br&gt;&lt;/span&gt;&lt;/div&gt;&lt;div&gt;+ addProtection(int): void&lt;/div&gt;&lt;div&gt;+ getRemainingProtection: int&lt;/div&gt;" style="text;strokeColor=none;fillColor=none;align=left;verticalAlign=top;spacingLeft=4;spacingRight=4;overflow=hidden;rotatable=0;points=[[0,0.5],[1,0.5]];portConstraint=eastwest;whiteSpace=wrap;html=1;" parent="mcBrEfWgZ10Lk5Ddw_8H-13" vertex="1">
          <mxGeometry y="60" width="220" height="110" as="geometry" />
        </mxCell>
        <mxCell id="mcBrEfWgZ10Lk5Ddw_8H-17" value="" style="endArrow=block;endSize=16;endFill=0;html=1;rounded=0;entryX=0.011;entryY=0.902;entryDx=0;entryDy=0;entryPerimeter=0;exitX=1.009;exitY=0.878;exitDx=0;exitDy=0;exitPerimeter=0;" parent="WIyWlLk6GJQsqaUBKTNV-1" source="mcBrEfWgZ10Lk5Ddw_8H-16" target="akZmPor6qZCUniB-4no1-6" edge="1">
          <mxGeometry width="160" relative="1" as="geometry">
            <mxPoint x="-1430" y="380" as="sourcePoint" />
            <mxPoint x="-1270" y="380" as="targetPoint" />
          </mxGeometry>
        </mxCell>
        <mxCell id="Mlpgkqo5bwdd3a9hfzDI-0" value="" style="endArrow=open;endFill=1;endSize=12;html=1;rounded=0;exitX=0.25;exitY=0;exitDx=0;exitDy=0;entryX=1;entryY=0;entryDx=0;entryDy=0;" edge="1" parent="WIyWlLk6GJQsqaUBKTNV-1" source="ZTby4JIDLadT5wWPWZZM-724" target="ZTby4JIDLadT5wWPWZZM-708">
          <mxGeometry width="160" relative="1" as="geometry">
            <mxPoint x="-550" y="1106" as="sourcePoint" />
            <mxPoint x="-420" y="890" as="targetPoint" />
            <Array as="points">
              <mxPoint x="-620" y="1080" />
              <mxPoint x="-420" y="1080" />
              <mxPoint x="-420" y="880" />
            </Array>
          </mxGeometry>
        </mxCell>
        <mxCell id="LWb54_HK2BMXyp2uk4u7-38" value="&lt;span style=&quot;color: rgb(0, 0, 0); font-family: Helvetica; font-style: normal; font-variant-ligatures: normal; font-variant-caps: normal; font-weight: 400; letter-spacing: normal; orphans: 2; text-align: left; text-indent: 0px; text-transform: none; widows: 2; word-spacing: 0px; -webkit-text-stroke-width: 0px; white-space: normal; background-color: rgb(251, 251, 251); text-decoration-thickness: initial; text-decoration-style: initial; text-decoration-color: initial; float: none; display: inline !important;&quot;&gt;&lt;font style=&quot;font-size: 9px;&quot;&gt;- listOfCharacters: List&amp;lt;Character&amp;gt;&lt;/font&gt;&lt;/span&gt;" style="text;whiteSpace=wrap;html=1;" parent="WIyWlLk6GJQsqaUBKTNV-1" vertex="1">
          <mxGeometry x="-580" y="1070" width="197" height="30" as="geometry" />
        </mxCell>
        <mxCell id="Mlpgkqo5bwdd3a9hfzDI-2" value="1" style="text;html=1;align=center;verticalAlign=middle;resizable=0;points=[];autosize=1;strokeColor=none;fillColor=none;" vertex="1" parent="WIyWlLk6GJQsqaUBKTNV-1">
          <mxGeometry x="-625" y="1078" width="30" height="30" as="geometry" />
        </mxCell>
        <mxCell id="Mlpgkqo5bwdd3a9hfzDI-4" value="1" style="text;html=1;align=center;verticalAlign=middle;resizable=0;points=[];autosize=1;strokeColor=none;fillColor=none;" vertex="1" parent="WIyWlLk6GJQsqaUBKTNV-1">
          <mxGeometry x="-413" y="1078" width="30" height="30" as="geometry" />
        </mxCell>
        <mxCell id="Mlpgkqo5bwdd3a9hfzDI-3" value="&lt;span style=&quot;color: rgb(0, 0, 0); font-family: Helvetica; font-style: normal; font-variant-ligatures: normal; font-variant-caps: normal; font-weight: 400; letter-spacing: normal; orphans: 2; text-align: left; text-indent: 0px; text-transform: none; widows: 2; word-spacing: 0px; -webkit-text-stroke-width: 0px; white-space: normal; background-color: rgb(251, 251, 251); text-decoration-thickness: initial; text-decoration-style: initial; text-decoration-color: initial; float: none; display: inline !important;&quot;&gt;&lt;font style=&quot;font-size: 9px;&quot;&gt;- rooms: List&amp;lt;Room&amp;gt;&lt;/font&gt;&lt;/span&gt;" style="text;whiteSpace=wrap;html=1;" vertex="1" parent="WIyWlLk6GJQsqaUBKTNV-1">
          <mxGeometry x="-570" y="831" width="197" height="30" as="geometry" />
        </mxCell>
        <mxCell id="Mlpgkqo5bwdd3a9hfzDI-6" value="" style="endArrow=open;endFill=1;endSize=12;html=1;rounded=0;entryX=0.896;entryY=0.996;entryDx=0;entryDy=0;entryPerimeter=0;exitX=0.874;exitY=0.002;exitDx=0;exitDy=0;exitPerimeter=0;" edge="1" parent="WIyWlLk6GJQsqaUBKTNV-1" source="ZTby4JIDLadT5wWPWZZM-708" target="ZTby4JIDLadT5wWPWZZM-736">
          <mxGeometry width="160" relative="1" as="geometry">
            <mxPoint x="-760" y="840" as="sourcePoint" />
            <mxPoint x="-760" y="877" as="targetPoint" />
          </mxGeometry>
        </mxCell>
        <mxCell id="Mlpgkqo5bwdd3a9hfzDI-7" value="" style="endArrow=diamondThin;endFill=0;endSize=24;html=1;rounded=0;entryX=0.003;entryY=1.021;entryDx=0;entryDy=0;entryPerimeter=0;exitX=0.045;exitY=0.002;exitDx=0;exitDy=0;exitPerimeter=0;" edge="1" parent="WIyWlLk6GJQsqaUBKTNV-1" source="ZTby4JIDLadT5wWPWZZM-712" target="WyQ1bJz3u44lY2joad9U-0">
          <mxGeometry width="160" relative="1" as="geometry">
            <mxPoint x="-910" y="310" as="sourcePoint" />
            <mxPoint x="-880" y="430" as="targetPoint" />
            <Array as="points">
              <mxPoint x="-1290" y="580" />
              <mxPoint x="-1040" y="580" />
              <mxPoint x="-1020" y="420" />
              <mxPoint x="-910" y="420" />
              <mxPoint x="-910" y="310" />
            </Array>
          </mxGeometry>
        </mxCell>
        <mxCell id="Mlpgkqo5bwdd3a9hfzDI-10" value="- transistorList: List&amp;lt;Transistor&amp;gt;" style="edgeLabel;html=1;align=center;verticalAlign=middle;resizable=0;points=[];" vertex="1" connectable="0" parent="Mlpgkqo5bwdd3a9hfzDI-7">
          <mxGeometry x="0.5096" y="2" relative="1" as="geometry">
            <mxPoint x="-232" y="167" as="offset" />
          </mxGeometry>
        </mxCell>
        <mxCell id="Mlpgkqo5bwdd3a9hfzDI-8" value="1" style="text;html=1;align=center;verticalAlign=middle;resizable=0;points=[];autosize=1;strokeColor=none;fillColor=none;" vertex="1" parent="WIyWlLk6GJQsqaUBKTNV-1">
          <mxGeometry x="-1305" y="960" width="30" height="30" as="geometry" />
        </mxCell>
        <mxCell id="Mlpgkqo5bwdd3a9hfzDI-9" value="1" style="text;html=1;align=center;verticalAlign=middle;resizable=0;points=[];autosize=1;strokeColor=none;fillColor=none;" vertex="1" parent="WIyWlLk6GJQsqaUBKTNV-1">
          <mxGeometry x="-1340" y="960" width="30" height="30" as="geometry" />
        </mxCell>
      </root>
    </mxGraphModel>
  </diagram>
</mxfile>
